<svg width="1720" height="783" viewBox="0 0 1720 783" fill="none" xmlns="http://www.w3.org/2000/svg">
<path d="M95.3608 698.765C94.4386 698.765 93.6371 698.037 93.4131 697.01L71.3245 595.36L51.425 678.174C51.2009 679.121 50.477 679.799 49.6324 679.869C48.7878 679.939 47.995 679.381 47.6502 678.483L33.344 640.781L30.0776 650.403C29.776 651.291 29.0348 651.879 28.2075 651.879H2.00805C0.896296 651.879 0 650.832 0 649.556C0 648.279 0.896296 647.232 2.00805 647.232H26.8372L31.3704 633.88C31.6634 633.003 32.3873 632.424 33.1974 632.404C34.0076 632.384 34.7487 632.933 35.0762 633.79L49.0636 670.635L69.4888 585.648C69.7388 584.641 70.5403 583.933 71.4538 583.953C72.3673 583.963 73.1516 584.69 73.3757 585.708L95.3952 687.039L108.357 629.034C108.573 628.057 109.322 627.349 110.193 627.299C111.063 627.249 111.873 627.857 112.184 628.805L122.741 661.422L126.093 648.828C126.352 647.85 127.128 647.182 128.015 647.182H1717.99C1719.1 647.182 1720 648.219 1720 649.506C1720 650.792 1719.1 651.829 1717.99 651.829H129.489L124.844 669.299C124.594 670.247 123.844 670.905 122.982 670.935C122.12 670.965 121.345 670.356 121.043 669.429L110.65 637.32L97.3085 697.03C97.0758 698.047 96.2743 698.765 95.3608 698.765Z" fill="#FF1733"/>
<path d="M1016.72 516.28C1016.72 516.28 1005.24 502.938 1001.53 495.995C997.699 489.051 987.289 476.662 983.46 471.761C979.631 466.86 973.29 466.043 971.016 469.719C968.743 473.531 963.239 488.371 985.973 508.792C991.836 532.482 996.861 535.749 996.861 535.749L1003.08 548.819C1003.08 548.683 1019.95 531.665 1016.72 516.28Z" fill="#E9A08C"/>
<path opacity="0.22" d="M983.341 471.761C985.136 474.075 988.247 477.887 991.477 482.108C986.452 482.38 982.623 477.615 980.589 474.484C979.273 472.578 979.632 470.399 979.991 468.902C981.307 469.583 982.384 470.536 983.341 471.761Z" fill="#A9554F"/>
<path opacity="0.33" d="M980.469 469.038C981.546 469.719 982.503 470.672 983.34 471.761C987.169 476.662 997.579 489.051 1001.41 495.995C1005.24 502.938 1016.6 516.28 1016.6 516.28C1017.56 520.909 1016.72 525.811 1015.05 530.303C1009.66 522.135 999.733 507.022 995.784 501.577C990.998 495.042 982.862 474.892 980.469 469.038Z" fill="#A9554F"/>
<path opacity="0.64" d="M1005.6 522.543C1005 517.233 1004.4 505.933 1004.04 500.215C1008.95 507.295 1016.6 516.28 1016.6 516.28C1019.95 531.665 1002.96 548.683 1002.96 548.683L997.34 536.838C998.895 533.979 1001.53 529.214 1005.6 522.543Z" fill="#A9554F"/>
<path d="M993.63 553.857C993.63 553.857 984.656 537.111 981.545 532.754C978.554 528.397 967.067 512.741 963.717 506.478C960.367 500.079 952.589 498.99 951.273 509.337C949.957 519.684 952.23 530.44 962.76 537.928C968.383 560.8 972.332 561.617 972.332 561.617L970.896 578.635C970.896 578.771 993.271 564.748 993.63 553.857Z" fill="#DB7D6E"/>
<path opacity="0.22" d="M963.837 506.478C964.914 508.656 967.067 511.788 969.341 515.327C967.426 514.783 965.033 513.83 963.837 512.196C962.281 510.29 962.042 506.478 962.042 504.027C962.64 504.572 963.239 505.525 963.837 506.478Z" fill="#A9554F"/>
<path d="M923.155 715.734C923.155 715.734 946.128 668.763 977.238 651.064C1008.35 633.366 1016.6 622.61 1019.24 611.855C1065.18 577.274 1069.85 567.335 1069.85 567.335C1069.85 567.335 1082.05 513.285 1083.37 504.844C1084.33 498.582 1086.12 487.962 1086.96 483.061C1087.2 481.291 1086.36 479.657 1084.93 478.977C1078.46 476.118 1061.11 472.578 1058.96 511.788C1051.54 525.674 1044.72 538.744 1046.16 548.683L1036.71 552.495C1036.71 552.495 1041.49 539.425 1040.77 530.984C1040.06 522.543 1030.6 480.883 1030.6 480.883C1030.6 480.883 1023.3 441.673 1019.12 438.541C1015.05 435.41 1007.27 437.724 1005.36 443.987C1003.44 450.114 1000.45 467.813 1005.36 482.516C1005.48 503.347 1010.26 514.783 1012.89 520.229C1004.04 541.059 993.271 543.373 992.194 561.072C966.469 591.841 917.771 657.191 917.771 657.191L923.155 715.734Z" fill="#E9A08C"/>
<path opacity="0.33" d="M1040.89 530.984C1041.49 538.064 1038.26 548.274 1037.18 551.542C1028.93 554.129 1021.75 559.03 1021.75 559.03C1021.75 559.03 1029.77 539.833 1032.28 528.125C1033.71 521.454 1033.47 504.708 1033.12 491.502C1035.99 504.3 1040.41 525.266 1040.89 530.984Z" fill="#A9554F"/>
<path opacity="0.33" d="M1017.08 521.862C1017.08 521.862 1003.92 551.134 998.776 552.495C997.34 552.904 995.665 552.767 994.109 552.359C997.579 541.74 1006.07 536.975 1013.25 520.229C1010.5 514.783 1005.84 503.347 1005.72 482.516C1000.81 467.949 1003.8 450.25 1005.72 443.987C1006.07 442.626 1006.79 441.537 1007.63 440.584C1007.63 440.992 1006.55 479.657 1012.54 481.972C1017.68 482.653 1017.68 482.653 1017.68 482.653C1017.68 482.653 1008.59 489.051 1010.02 496.539C1011.46 504.027 1017.08 521.862 1017.08 521.862Z" fill="#A9554F"/>
<path d="M985.854 508.792C985.854 508.792 988.606 506.478 991.478 502.938" stroke="#C15F5B" stroke-width="1.6962" stroke-miterlimit="10"/>
<path d="M962.761 537.927C962.761 537.927 966.949 535.613 968.625 532.073" stroke="#C15F5B" stroke-width="1.6962" stroke-miterlimit="10"/>
<path d="M1005.6 482.516C1008.59 483.333 1011.7 484.695 1017.56 482.653" stroke="#C15F5B" stroke-width="1.6962" stroke-miterlimit="10"/>
<path d="M1012.42 521.862C1012.42 521.862 1018.76 524.313 1021.63 524.449" stroke="#C15F5B" stroke-width="1.6962" stroke-miterlimit="10"/>
<path d="M702.516 516.28C702.516 516.28 714.002 502.938 717.711 495.995C721.54 489.051 731.95 476.662 735.779 471.761C739.608 466.86 745.949 466.043 748.223 469.719C750.496 473.531 756 488.371 733.266 508.792C727.403 532.482 722.378 535.749 722.378 535.749L716.156 548.819C716.156 548.683 699.285 531.665 702.516 516.28Z" fill="#E9A08C"/>
<path opacity="0.22" d="M735.899 471.761C734.104 474.075 730.993 477.887 727.763 482.108C732.788 482.38 736.617 477.615 738.651 474.484C739.967 472.578 739.608 470.399 739.249 468.902C737.933 469.583 736.737 470.536 735.899 471.761Z" fill="#A9554F"/>
<path opacity="0.33" d="M738.771 469.038C737.694 469.719 736.737 470.672 735.899 471.761C732.07 476.662 721.66 489.051 717.832 495.995C714.003 502.938 702.636 516.28 702.636 516.28C701.679 520.909 702.516 525.811 704.191 530.303C709.576 522.135 719.507 507.023 723.455 501.577C728.241 495.042 736.378 474.892 738.771 469.038Z" fill="#A9554F"/>
<path opacity="0.64" d="M713.644 522.543C714.242 517.233 714.84 505.933 715.199 500.215C710.294 507.295 702.636 516.28 702.636 516.28C699.285 531.665 716.276 548.683 716.276 548.683L721.9 536.838C720.344 533.979 717.712 529.214 713.644 522.543Z" fill="#A9554F"/>
<path d="M725.609 553.857C725.609 553.857 734.583 537.111 737.694 532.754C740.686 528.397 752.172 512.741 755.523 506.478C758.873 500.079 766.65 498.99 767.966 509.337C769.283 519.684 767.009 530.44 756.48 537.928C750.856 560.8 746.908 561.617 746.908 561.617L748.343 578.635C748.343 578.771 725.968 564.748 725.609 553.857Z" fill="#DB7D6E"/>
<path opacity="0.22" d="M755.402 506.478C754.326 508.656 752.172 511.788 749.898 515.327C751.813 514.783 754.206 513.83 755.402 512.196C756.958 510.29 757.197 506.478 757.197 504.027C756.479 504.572 755.881 505.525 755.402 506.478Z" fill="#A9554F"/>
<path d="M795.965 715.734C795.965 715.734 772.991 668.763 741.882 651.064C710.772 633.366 702.516 622.61 699.884 611.855C653.937 577.274 649.271 567.335 649.271 567.335C649.271 567.335 637.066 513.285 635.63 504.844C634.673 498.582 632.878 487.962 632.041 483.061C631.801 481.291 632.639 479.657 634.075 478.977C640.536 476.118 657.886 472.578 660.039 511.788C667.458 525.674 674.278 538.744 672.842 548.683L682.295 552.495C682.295 552.495 677.509 539.425 678.226 530.984C678.944 522.543 688.397 480.883 688.397 480.883C688.397 480.883 695.696 441.673 699.884 438.541C703.952 435.41 711.729 437.724 713.644 443.987C715.558 450.114 718.549 467.813 713.644 482.516C713.524 503.347 708.738 514.783 706.106 520.229C714.84 541.059 725.729 543.373 726.805 561.072C752.89 591.841 801.588 657.327 801.588 657.327L795.965 715.734Z" fill="#E9A08C"/>
<path opacity="0.33" d="M678.346 530.984C677.747 538.064 680.978 548.274 682.055 551.542C690.311 554.129 697.49 559.03 697.49 559.03C697.49 559.03 689.473 539.833 686.961 528.125C685.525 521.454 685.764 504.708 686.123 491.502C683.251 504.3 678.824 525.266 678.346 530.984Z" fill="#A9554F"/>
<path opacity="0.33" d="M702.157 521.862C702.157 521.862 715.319 551.134 720.464 552.495C721.9 552.904 723.575 552.767 725.13 552.359C721.66 541.74 713.165 536.975 705.986 520.229C708.738 514.783 713.404 503.347 713.524 482.516C718.43 467.949 715.438 450.25 713.524 443.987C713.165 442.626 712.447 441.537 711.609 440.584C711.609 440.992 712.686 479.657 706.704 481.972C701.559 482.653 701.559 482.653 701.559 482.653C701.559 482.653 710.652 489.051 709.216 496.539C707.781 504.027 702.157 521.862 702.157 521.862Z" fill="#A9554F"/>
<path d="M733.267 508.792C733.267 508.792 730.515 506.478 727.643 502.938" stroke="#C15F5B" stroke-width="1.6962" stroke-miterlimit="10"/>
<path d="M756.479 537.927C756.479 537.927 752.291 535.613 750.615 532.073" stroke="#C15F5B" stroke-width="1.6962" stroke-miterlimit="10"/>
<path d="M713.643 482.516C710.652 483.333 707.541 484.695 701.678 482.653" stroke="#C15F5B" stroke-width="1.6962" stroke-miterlimit="10"/>
<path d="M706.703 521.862C706.703 521.862 700.362 524.313 697.49 524.449" stroke="#C15F5B" stroke-width="1.6962" stroke-miterlimit="10"/>
<path opacity="0.22" d="M637.665 493.953C637.425 488.098 633.715 484.967 632.279 484.014C633.117 488.779 634.433 497.084 635.391 502.938C636.348 501.849 637.904 499.126 637.665 493.953Z" fill="#A9554F"/>
<path d="M699.883 611.855L713.643 622.338" stroke="#C15F5B" stroke-width="1.6962" stroke-miterlimit="10"/>
<path opacity="0.33" d="M713.644 578.771C703.832 564.476 703.832 564.476 703.832 564.476C703.832 564.476 694.499 554.265 681.936 551.133C682.175 551.95 682.415 552.495 682.415 552.495L677.15 550.317L672.962 548.683C674.278 538.744 667.578 525.538 660.159 511.787C658.364 478.84 645.801 476.117 638.023 477.751C643.647 482.516 655.493 494.905 655.014 515.327C668.176 538.744 667.697 557.124 667.697 557.124C667.697 557.124 703.234 572.1 713.644 578.771Z" fill="#A9554F"/>
<path d="M855.91 782.036C855.91 782.036 862.252 710.288 859.62 683.331C856.868 656.374 847.415 597.832 783.88 590.207C754.804 578.635 754.804 578.635 754.804 578.635C754.804 578.635 732.429 548.547 716.276 548.547C700.003 548.547 697.371 561.617 702.037 571.692C706.823 581.766 733.147 609.404 733.147 609.404C733.147 609.404 756.12 624.788 767.009 643.985C777.777 663.181 796.802 701.711 791.418 736.291C786.033 770.872 783.281 781.9 783.281 781.9H855.91V782.036Z" fill="#E9A08C"/>
<path opacity="0.48" d="M715.557 556.579C718.907 554.81 722.976 556.171 724.89 559.847C727.283 564.34 728.48 571.011 720.702 576.729C710.292 583.672 701.079 571.147 700.601 567.879C705.147 562.434 711.25 558.622 715.557 556.579Z" fill="#A9554F"/>
<path opacity="0.15" d="M711.131 578.226C714.003 579.18 717.353 578.907 720.703 576.593C725.728 572.781 727.045 568.696 726.566 565.02C722.976 565.973 715.438 568.969 711.131 578.226Z" fill="#FBF2DD"/>
<path d="M682.414 552.495C682.414 552.495 694.499 555.354 700.601 561.753" stroke="#C15F5B" stroke-width="1.6962" stroke-miterlimit="10"/>
<path d="M660.039 511.788C660.039 511.788 655.731 515.736 648.672 518.323" stroke="#C15F5B" stroke-width="1.6962" stroke-miterlimit="10"/>
<path d="M672.842 548.683C672.842 548.683 669.133 557.532 665.424 559.03" stroke="#C15F5B" stroke-width="1.6962" stroke-miterlimit="10"/>
<path opacity="0.33" d="M783.879 590.207C754.804 578.635 754.804 578.635 754.804 578.635C754.804 578.635 732.429 548.547 716.276 548.547C711.37 548.547 707.661 549.772 705.028 551.678C713.883 555.899 728.6 564.476 738.77 578.635C754.206 599.874 784.837 607.906 784.837 607.906C784.837 607.906 846.218 622.202 856.987 665.36C851.363 636.225 835.45 596.47 783.879 590.207Z" fill="white"/>
<path opacity="0.33" d="M783.162 782.036H817.502C818.46 772.234 819.058 758.075 817.861 740.648C815.468 707.156 805.537 671.622 774.068 657.599C742.6 643.576 711.969 630.506 711.969 630.506C718.31 636.361 727.763 643.032 741.882 651.064C764.018 663.59 781.966 690.955 790.58 705.795C792.375 716.006 792.854 726.489 791.298 736.564C785.914 771.145 783.162 782.036 783.162 782.036Z" fill="#A9554F"/>
<path d="M762.343 637.177C762.343 637.177 752.292 625.605 738.652 613.624C725.131 601.78 702.038 571.964 702.038 571.964C702.038 571.964 696.175 559.847 704.072 552.495C711.969 545.007 727.644 552.495 727.644 552.495C727.644 552.495 742.122 563.659 747.626 570.058" stroke="#C15F5B" stroke-width="1.6962" stroke-miterlimit="10" stroke-linecap="round"/>
<path opacity="0.22" d="M1081.46 493.953C1081.7 488.098 1085.4 484.967 1086.84 484.014C1086 488.779 1084.69 497.084 1083.73 502.938C1082.89 501.849 1081.22 499.126 1081.46 493.953Z" fill="#A9554F"/>
<path d="M1019.36 611.855L1005.6 622.338" stroke="#C15F5B" stroke-width="1.6962" stroke-miterlimit="10"/>
<path opacity="0.33" d="M1005.6 578.771C1015.41 564.476 1015.41 564.476 1015.41 564.476C1015.41 564.476 1024.74 554.265 1037.3 551.133C1037.06 551.95 1036.83 552.495 1036.83 552.495L1042.09 550.317L1046.28 548.683C1044.96 538.744 1051.66 525.538 1059.08 511.787C1060.88 478.84 1073.44 476.117 1081.22 477.751C1075.59 482.516 1063.75 494.905 1064.23 515.327C1051.06 538.744 1051.54 557.124 1051.54 557.124C1051.54 557.124 1015.89 572.1 1005.6 578.771Z" fill="#A9554F"/>
<path d="M863.329 782.036C863.329 782.036 856.987 710.288 859.619 683.331C862.371 656.374 871.824 597.832 935.359 590.208C964.435 578.635 964.435 578.635 964.435 578.635C964.435 578.635 986.81 548.547 1002.96 548.547C1019.24 548.547 1021.87 561.617 1017.2 571.692C1012.42 581.766 986.092 609.404 986.092 609.404C986.092 609.404 963.119 624.788 952.23 643.985C941.462 663.181 922.437 701.711 927.821 736.292C933.206 770.873 935.958 781.9 935.958 781.9H863.329V782.036Z" fill="#E9A08C"/>
<path opacity="0.48" d="M1003.68 556.579C1000.33 554.81 996.263 556.171 994.349 559.847C991.956 564.34 990.759 571.011 998.537 576.729C1008.95 583.672 1018.16 571.147 1018.64 567.879C1013.97 562.434 1007.99 558.622 1003.68 556.579Z" fill="#A9554F"/>
<path opacity="0.15" d="M1008.11 578.226C1005.24 579.18 1001.89 578.907 998.536 576.593C993.51 572.781 992.194 568.696 992.673 565.02C996.262 565.973 1003.8 568.969 1008.11 578.226Z" fill="#FBF2DD"/>
<path d="M1036.82 552.495C1036.82 552.495 1024.74 555.354 1018.64 561.753" stroke="#C15F5B" stroke-width="1.6962" stroke-miterlimit="10"/>
<path d="M1059.2 511.788C1059.2 511.788 1063.51 515.736 1070.57 518.323" stroke="#C15F5B" stroke-width="1.6962" stroke-miterlimit="10"/>
<path d="M1046.28 548.683C1046.28 548.683 1049.99 557.532 1053.7 559.03" stroke="#C15F5B" stroke-width="1.6962" stroke-miterlimit="10"/>
<path opacity="0.33" d="M935.361 590.208C964.436 578.635 964.436 578.635 964.436 578.635C964.436 578.635 986.811 548.547 1002.96 548.547C1007.87 548.547 1011.58 549.772 1014.21 551.678C1005.36 555.899 990.64 564.476 980.47 578.635C965.035 599.874 934.403 607.906 934.403 607.906C934.403 607.906 873.141 622.066 862.253 665.224C867.757 636.225 883.79 596.47 935.361 590.208Z" fill="white"/>
<path opacity="0.33" d="M936.078 782.036H901.738C900.781 772.234 900.183 758.075 901.379 740.648C903.772 707.156 913.703 671.622 945.172 657.599C976.641 643.576 1007.27 630.506 1007.27 630.506C1000.93 636.361 991.478 643.032 977.359 651.064C955.223 663.59 937.275 690.955 928.66 705.795C926.865 716.006 926.387 726.489 927.942 736.564C933.326 771.145 936.078 782.036 936.078 782.036Z" fill="#A9554F"/>
<path d="M956.777 637.177C956.777 637.177 966.828 625.605 980.469 613.624C993.989 601.78 1017.08 571.964 1017.08 571.964C1017.08 571.964 1022.95 559.847 1015.05 552.495C1007.15 545.007 991.477 552.495 991.477 552.495C991.477 552.495 976.999 563.523 971.614 570.058" stroke="#C15F5B" stroke-width="1.6962" stroke-miterlimit="10" stroke-linecap="round"/>
<path opacity="0.33" d="M877.688 624.516C877.568 624.652 877.568 624.788 877.448 624.924C876.97 625.741 876.491 626.422 876.013 627.239C875.893 627.375 875.893 627.511 875.773 627.511C875.295 628.328 874.816 629.145 874.337 630.098C874.218 630.234 874.098 630.506 874.098 630.643C873.619 631.459 873.141 632.412 872.782 633.229C872.782 633.366 872.662 633.366 872.662 633.502C872.303 634.319 871.825 635.135 871.466 635.952C871.346 636.088 871.346 636.225 871.226 636.361C870.867 637.178 870.389 638.131 870.03 638.947C869.91 639.084 869.91 639.22 869.791 639.492C869.432 640.309 869.073 641.262 868.714 642.079C868.714 642.079 868.714 642.079 868.714 642.215C868.355 643.168 867.996 643.985 867.757 644.938C867.637 645.074 867.637 645.346 867.517 645.482C867.158 646.299 866.919 647.252 866.68 648.069C866.68 648.205 866.56 648.342 866.56 648.478C866.321 649.295 866.081 650.111 865.722 650.928C865.722 651.064 865.603 651.201 865.603 651.201C865.363 652.017 865.124 652.97 864.885 653.787C864.885 653.923 864.765 654.06 864.765 654.332C864.526 655.149 864.287 656.102 864.047 656.919V657.055C863.808 657.872 863.688 658.689 863.449 659.505C863.449 659.642 863.329 659.778 863.329 659.914C863.09 660.731 862.97 661.548 862.731 662.364C862.731 662.501 862.731 662.637 862.611 662.773C862.492 663.59 862.252 664.407 862.133 665.224C860.817 672.031 860.099 678.157 859.62 683.195C857.466 704.161 860.936 752.084 862.492 772.506C862.611 769.919 862.492 766.788 862.133 762.976C857.945 716.414 877.807 624.924 878.047 623.835C877.927 624.244 877.807 624.38 877.688 624.516Z" fill="#A9554F"/>
<path d="M786.512 417.166C786.512 417.166 775.384 436.499 774.547 476.254C774.427 483.333 779.692 489.051 785.914 488.507C786.751 488.37 787.589 488.37 788.307 488.098C792.973 487.145 796.443 482.788 796.922 477.479C798.477 460.052 804.101 438.269 804.101 438.269C804.101 438.269 807.81 419.209 786.512 417.166Z" fill="#D66562"/>
<path d="M803.982 438.269C803.982 438.269 807.811 419.072 786.393 417.166C786.393 417.166 781.846 425.063 778.376 440.856C784 447.527 792.495 459.644 796.922 476.117C798.717 459.099 803.982 438.269 803.982 438.269Z" fill="#841A25"/>
<path opacity="0.32" d="M780.769 457.057C780.769 457.057 775.743 477.07 780.769 481.699C785.795 486.328 781.966 474.62 783.043 467.268C784.12 459.78 781.726 452.7 780.769 457.057Z" fill="white"/>
<path d="M790.939 348.141C790.939 348.141 769.641 336.977 762.701 336.977C755.881 336.977 752.172 358.352 757.317 362.981C764.137 365.567 780.889 372.511 785.316 375.642C789.863 378.91 790.939 348.141 790.939 348.141Z" fill="#ED8888"/>
<path d="M757.437 362.981C764.257 365.567 781.009 372.511 785.436 375.642C789.863 378.773 790.94 348.005 790.94 348.005C790.94 348.005 788.068 346.507 784.239 344.601C783.521 349.638 781.009 363.117 772.992 362.844C765.693 362.572 758.514 359.305 755.283 357.671C755.523 360.122 756.24 362.028 757.437 362.981Z" fill="#BA5050"/>
<path opacity="0.32" d="M762.941 340.517C762.941 340.517 769.522 342.014 774.667 344.737C779.812 347.46 774.308 346.915 768.804 345.418C763.3 343.784 758.753 341.061 762.941 340.517Z" fill="white"/>
<path d="M784.957 382.585C784.957 382.585 761.983 377.276 755.283 379.046C748.582 380.816 749.42 402.599 755.283 405.73C762.462 406.411 780.171 408.862 785.076 410.768C790.222 412.81 784.957 382.585 784.957 382.585Z" fill="#ED8888"/>
<path d="M755.402 405.866C762.581 406.547 780.29 408.998 785.196 410.904C790.101 412.81 784.956 382.585 784.956 382.585C784.956 382.585 781.965 381.905 777.657 381.088C778.016 386.261 778.256 400.012 770.359 401.782C763.179 403.416 755.522 402.19 752.052 401.374C753.009 403.552 754.086 405.186 755.402 405.866Z" fill="#BA5050"/>
<path opacity="0.32" d="M756.24 382.449C756.24 382.449 762.94 382.177 768.444 383.538C774.068 384.9 768.564 385.717 762.821 385.717C757.077 385.717 752.291 384.219 756.24 382.449Z" fill="white"/>
<path d="M859.859 332.62C859.859 332.62 919.446 320.639 936.436 377.82C945.171 410.495 924.112 502.257 916.694 518.867C909.395 535.613 881.037 559.574 849.329 532.89C817.621 506.205 789.264 473.394 786.512 417.166C775.504 386.397 783.281 365.839 786.512 351.68C789.742 337.385 782.802 322.681 784.238 316.555C785.554 310.292 797.998 297.767 809.006 296.269C820.014 294.772 819.536 302.396 822.288 315.193C825.04 327.991 830.544 338.474 830.544 338.474C830.544 338.474 846.936 333.709 859.859 332.62Z" fill="#D66562"/>
<path d="M869.91 331.667C866.081 337.385 862.97 345.418 864.765 355.356C864.765 355.356 882.473 341.878 899.703 336.296C888.695 332.075 877.568 331.395 869.91 331.667Z" fill="#841A25"/>
<path d="M912.267 526.355C875.534 552.087 844.903 521.318 826.835 501.713C808.768 482.108 817.024 409.678 817.024 409.678C817.024 409.678 804.221 442.762 804.221 428.058C804.221 390.89 819.656 363.389 819.656 363.389L787.23 342.423C787.35 345.554 787.11 348.821 786.393 351.953C783.162 366.248 775.385 386.67 786.393 417.439C789.145 473.803 817.383 506.614 849.21 533.162C876.491 555.763 901.139 541.331 912.267 526.355Z" fill="#BA5050"/>
<path d="M919.685 337.657C919.685 337.657 905.686 323.362 886.421 329.625C873.14 333.301 864.884 355.493 864.884 355.493C864.884 355.493 844.663 354.676 841.552 339.019C848.013 314.513 863.329 295.997 887.379 292.321C911.429 288.645 932.129 306.616 935.958 320.503C919.685 337.658 919.685 337.657 919.685 337.657Z" fill="#ED8888"/>
<path d="M867.398 302.94L863.689 291.504C862.493 287.964 864.048 284.016 867.039 282.518L869.313 281.429C872.543 279.932 876.253 281.702 877.449 285.378L881.517 297.222L867.398 302.94Z" fill="#ED8888"/>
<path d="M874.338 284.016C874.577 284.969 872.783 286.603 870.27 287.556C867.757 288.509 865.484 288.509 865.125 287.556C864.886 286.603 866.68 284.969 869.193 284.016C871.706 283.063 873.979 283.063 874.338 284.016Z" fill="#56221C"/>
<path d="M887.977 295.725L887.618 283.608C887.499 279.796 890.011 276.664 893.242 276.392L895.635 276.12C899.105 275.847 902.096 278.706 902.336 282.655L903.054 295.316L887.977 295.725Z" fill="#ED8888"/>
<path d="M899.704 280.204C899.704 281.293 897.55 282.11 894.918 282.246C892.286 282.246 890.132 281.429 890.132 280.476C890.132 279.387 892.286 278.57 894.918 278.434C897.55 278.298 899.704 279.115 899.704 280.204Z" fill="#56221C"/>
<path d="M908.079 297.495L911.908 286.058C913.105 282.519 916.455 280.749 919.566 281.838L921.839 282.655C925.189 283.88 926.984 287.964 925.788 291.64L922.078 303.621L908.079 297.495Z" fill="#ED8888"/>
<path d="M924.113 288.373C923.754 289.326 921.481 289.19 918.968 288.101C916.455 287.011 914.78 285.241 915.139 284.288C915.498 283.335 917.772 283.472 920.284 284.561C922.797 285.65 924.472 287.42 924.113 288.373Z" fill="#56221C"/>
<path d="M910.353 323.771C900.781 323.09 891.568 317.236 879.124 325.404C867.518 333.029 859.62 346.099 857.945 354.131C861.774 355.22 864.885 355.356 864.885 355.356C864.885 355.356 873.141 333.165 886.423 329.489C905.687 323.226 919.686 337.521 919.686 337.521C919.686 337.521 919.686 337.521 935.959 320.367C935.002 316.963 932.968 313.287 930.096 309.612C926.028 314.785 917.532 324.315 910.353 323.771Z" fill="#BA5050"/>
<path opacity="0.32" d="M885.106 308.25C885.106 308.25 867.756 318.461 861.893 330.17C856.03 341.878 853.159 327.855 860.338 319.278C867.517 310.701 878.046 305.527 883.67 304.438C889.413 303.213 889.772 305.255 885.106 308.25Z" fill="white"/>
<path opacity="0.32" d="M874.457 391.435C874.457 391.435 894.559 412.946 896.952 436.771C899.225 460.597 919.088 450.522 917.054 430.1C915.019 409.678 901.618 388.167 892.644 382.449C883.79 376.867 869.312 383.13 874.457 391.435Z" fill="white"/>
<path d="M919.685 355.356L918.488 381.633C918.488 381.633 922.676 374.961 936.317 377.548C933.804 369.243 930.454 362.436 926.505 356.854L919.685 355.356Z" fill="#B22828"/>
<path d="M827.074 450.522C827.074 450.522 830.903 483.061 849.09 488.37C855.312 514.102 875.893 523.496 875.893 523.496C875.893 523.496 855.671 521.726 843.586 494.905C823.604 491.91 827.074 450.522 827.074 450.522Z" fill="#BA5050"/>
<path d="M808.887 296.133C797.879 297.631 785.555 310.156 784.119 316.419C782.803 322.681 789.623 337.385 786.393 351.544C783.162 365.839 775.385 386.261 786.393 417.03C782.564 348.549 813.913 357.943 816.306 371.558C836.647 361.619 830.425 338.338 830.425 338.338C830.425 338.338 824.921 327.855 822.169 315.057C819.417 302.259 819.895 294.635 808.887 296.133Z" fill="#B22828"/>
<path d="M805.453 317.053C812.79 311.547 817.233 304.488 815.378 301.287C813.522 298.086 806.07 299.954 798.733 305.461C791.396 310.967 786.953 318.026 788.808 321.227C790.664 324.428 798.116 322.56 805.453 317.053Z" fill="#56221C"/>
<path d="M895.516 356.99C895.516 356.99 916.574 322.818 939.548 312.198C949.359 309.067 959.051 321.32 959.889 330.442C960.128 336.432 950.436 342.967 945.171 347.188C939.907 351.408 923.155 368.563 918.369 381.905C904.011 381.224 895.276 368.154 895.516 356.99Z" fill="#D66562"/>
<path d="M956.419 332.484C954.863 333.981 950.675 331.259 947.086 326.493C943.496 321.728 941.821 316.555 943.257 315.057C944.812 313.56 949 316.283 952.59 321.048C956.299 325.949 957.974 330.986 956.419 332.484Z" fill="#56221C"/>
<path d="M907.72 339.972C907.72 339.972 901.02 347.188 895.516 356.854" stroke="#841A25" stroke-width="1.0181" stroke-miterlimit="10"/>
<path d="M819.775 307.842C819.775 307.842 813.075 325.268 792.136 329.08" stroke="#841A25" stroke-width="1.0181" stroke-miterlimit="10"/>
<path d="M866.56 300.354L868.235 304.438" stroke="#A9554F" stroke-width="1.0181" stroke-miterlimit="10"/>
<path d="M888.098 292.185L888.337 296.678" stroke="#A9554F" stroke-width="1.0181" stroke-miterlimit="10"/>
<path d="M909.036 294.636L908.079 297.495" stroke="#A9554F" stroke-width="1.0181" stroke-miterlimit="10"/>
<path opacity="0.32" d="M917.054 471.216C917.054 471.216 919.088 496.812 907.721 502.938C896.354 509.065 903.294 492.455 904.371 480.066C905.567 467.54 917.054 462.639 917.054 471.216Z" fill="white"/>
<path d="M831.382 399.468C831.382 399.468 823.245 435.682 839.279 452.837C830.424 434.321 830.185 411.993 831.382 399.468Z" fill="#BA5050"/>
<path d="M835.57 352.497C835.57 352.497 835.689 368.699 819.775 374.417C829.587 377.548 838.202 367.201 835.57 352.497Z" fill="#BA5050"/>
<path opacity="0.32" d="M934.522 327.447C934.522 327.447 914.899 343.24 907.6 354.267C900.301 365.295 902.934 367.882 915.737 354.267C928.539 340.653 940.983 324.86 934.522 327.447Z" fill="white"/>
<path d="M1075.95 342.254C1074.76 364.595 1059.31 381.538 1041.6 379.888C1023.9 378.389 1010.47 358.897 1011.78 336.557C1012.96 314.216 1028.41 297.274 1046.12 298.923C1063.83 300.572 1077.26 319.914 1075.95 342.254Z" fill="white"/>
<path d="M1059.43 303.871C1054.08 308.369 1050.4 315.866 1049.92 324.712C1049.09 339.855 1058.12 352.9 1070.13 353.949C1071.43 354.099 1072.62 353.949 1073.93 353.799C1075 350.201 1075.71 346.153 1075.95 342.104C1076.9 326.061 1070.01 311.368 1059.43 303.871Z" fill="#7599E2"/>
<path d="M1076.07 338.956C1075.95 329.96 1073.57 321.563 1069.53 314.816C1065.97 316.615 1063.35 320.664 1063.11 325.761C1062.76 332.808 1066.92 338.806 1072.5 339.406C1073.69 339.556 1074.88 339.406 1076.07 338.956Z" fill="black"/>
<path d="M1072.38 358.448C1072.38 358.448 1065.14 379.439 1047.67 380.488" stroke="black" stroke-miterlimit="10" stroke-linecap="round" stroke-linejoin="round"/>
<path d="M1046.12 298.923C1046.12 298.923 1021.64 295.625 1013.32 326.511" stroke="black" stroke-miterlimit="10" stroke-linecap="round" stroke-linejoin="round"/>
<path d="M1056.7 330.11C1056.46 333.858 1053.96 336.707 1050.99 336.407C1048.02 336.107 1045.76 332.958 1046 329.21C1046.24 325.462 1048.73 322.613 1051.71 322.913C1054.68 323.063 1056.93 326.361 1056.7 330.11Z" fill="white"/>
<path d="M1032.57 377.34C1032.33 376.59 1032.1 375.84 1031.74 375.091C1030.08 371.192 1027.7 367.744 1024.97 365.195C1023.42 363.845 1021.76 362.646 1021.05 360.547C1020.69 359.497 1020.57 358.148 1019.98 357.248C1019.38 356.199 1018.31 355.599 1017.48 354.699C1014.39 351.251 1015.58 344.803 1015.22 340.305C1014.98 337.157 1014.51 333.858 1013.2 331.009C1012.85 330.11 1011.66 330.26 1011.54 331.309C1011.3 332.659 1011.18 334.008 1011.18 335.507C1011.06 337.007 1011.06 338.506 1011.18 340.155C1009.4 340.005 1008.21 345.103 1007.5 346.603C1006.67 348.102 1005.83 349.601 1005.71 351.401C1005.48 354.699 1007.85 357.548 1007.62 360.847C1007.62 361.446 1007.5 362.196 1007.74 362.646C1007.97 363.096 1008.33 363.396 1008.69 363.695C1011.78 365.645 1015.1 366.844 1018.43 368.193C1019.26 368.493 1020.33 368.493 1020.69 367.744C1024.02 371.942 1034.59 382.887 1032.57 377.34Z" fill="#DE511B"/>
<path d="M1011.9 334.008C1011.66 336.557 1011.42 339.406 1010.23 341.505C1009.4 343.004 1008.21 343.904 1007.26 345.253C1006.55 346.303 1005.95 347.652 1005.36 348.852C1002.63 353.95 997.872 357.398 993 357.698" stroke="#DE511B" stroke-miterlimit="10" stroke-linecap="round" stroke-linejoin="round"/>
<path d="M1013.32 341.355C1011.42 341.205 1009.99 343.004 1008.69 344.803C1006.9 347.202 1005.12 349.452 1004.05 352.45C1003.34 354.399 1002.86 356.499 1001.79 358.148C1000.72 359.797 998.823 362.346 997.159 362.196" stroke="#DE511B" stroke-miterlimit="10" stroke-linecap="round" stroke-linejoin="round"/>
<path d="M1026.87 373.141C1022.83 369.093 1018.31 366.244 1013.2 365.944C1012.61 365.944 1011.06 364.445 1010.35 364.595C1009.16 364.745 1006.67 365.195 1006.07 365.795C1002.98 368.193 1001.08 368.044 997.753 368.193" stroke="#DE511B" stroke-miterlimit="10" stroke-linecap="round" stroke-linejoin="round"/>
<path d="M1019.14 367.444C1014.99 367.444 1009.99 370.443 1007.62 374.791" stroke="#DE511B" stroke-miterlimit="10" stroke-linecap="round" stroke-linejoin="round"/>
<path d="M1006.55 353.949C1006.67 355.449 1006.67 356.948 1006.19 358.298C1005.6 359.947 1004.29 361.146 1003.81 362.946" stroke="#DE511B" stroke-miterlimit="10" stroke-linecap="round" stroke-linejoin="round"/>
<path d="M1007.62 365.045C1007.14 365.494 1006.55 365.944 1006.19 366.394C1005.83 366.844 1005.6 367.294 1005.36 367.744C1005 368.493 1004.65 369.243 1004.41 369.843C1003.93 370.892 1003.46 371.942 1002.63 372.691" stroke="#DE511B" stroke-miterlimit="10" stroke-linecap="round" stroke-linejoin="round"/>
<path d="M1058.48 338.806C1058.48 338.806 1062.16 349.301 1071.32 348.552" stroke="white" stroke-miterlimit="10" stroke-linecap="round" stroke-linejoin="round"/>
<path d="M636.185 292.088C635.561 293.218 635.066 294.496 634.338 295.571C632.916 297.498 630.761 298.315 628.781 299.466C625.794 301.305 623.262 304.593 621.833 308.294C620.866 310.941 620.339 313.9 618.721 316.128C616.849 318.79 613.918 319.769 611.44 321.469C603.765 326.686 600.5 338.238 600.663 348.262C600.722 353.545 601.5 358.798 603.829 363C606.158 367.202 610.015 370.26 614.514 370.097C617.39 369.977 620.227 368.626 623.184 368.468C625.793 368.371 628.288 369.266 630.76 370.068C641.842 373.331 654.131 372.374 665.575 367.342C666.629 366.84 667.707 366.431 668.716 366.472C670.595 366.722 671.724 368.684 673.166 370.081C674.991 371.919 677.462 372.721 680.024 372.438C682.586 372.156 683.608 367.92 681.448 366.554C679.706 365.404 678.149 364.271 677.935 361.978C677.734 360.095 678.622 358.214 679.917 356.868C682.231 354.517 685.036 354.119 687.805 353.217C694.502 350.966 700.646 345.437 704.351 338.154C705.148 336.629 705.816 334.957 706.114 333.253C706.535 330.24 705.624 327.342 705.06 324.382C703.661 316.301 705.784 307.063 703.493 299.406C701.295 292.121 694.999 287.309 688.228 287.825C685.562 288.053 682.873 288.916 680.367 288.339C676.225 287.395 673.698 282.767 669.774 280.886C663.47 277.847 658.079 283.122 651.916 285.327C646.343 287.356 640.041 285.045 636.185 292.088Z" fill="#F4D4DE"/>
<path opacity="0.82" d="M683.712 341.474C678.157 341.573 672.362 345.928 669.56 352.045C668.964 353.346 668.471 354.698 667.497 355.578C665.915 356.96 663.972 356.499 662.125 356.799C658.245 357.389 654.141 361.924 655.501 367.11C655.589 367.471 655.781 367.881 655.951 368.202C657.561 371.045 660.706 370.816 663.496 370.255C664.112 370.155 664.668 370.186 665.306 370.176C665.491 370.186 665.736 370.066 665.922 370.076C666.983 369.555 668.208 368.955 669.321 369.015C671.197 369.206 672.297 371.088 673.718 372.41C675.746 374.343 678.659 375.034 681.509 374.344C683.764 373.843 684.611 370.199 682.7 369.117C680.456 367.795 678.255 366.654 678.612 363.25C678.696 362.098 679.233 360.927 680.021 360.036C682.483 357.013 685.665 356.563 688.612 355.522C690.289 354.902 691.923 354.101 693.534 353.21C694.203 352.579 694.872 351.949 695.645 351.368C694.108 345.461 689.164 341.325 683.712 341.474Z" fill="#DE511B"/>
<path d="M634.282 294.475C636.121 293.041 638.552 294.423 639.002 296.664C639.542 298.862 638.766 301.381 637.854 303.753C634.142 313.379 628.234 322.579 627.411 332.613C627.271 334.072 627.333 335.54 628.148 336.426C629.235 337.608 631.308 337.13 632.726 336.009C634.233 334.845 635.332 333.238 636.68 331.831C640.194 328.295 645.141 326.948 648.981 328.39C652.844 329.928 655.309 334.289 655.208 339.154C655.088 342.316 654.074 345.487 653.285 348.762C652.327 352.976 651.997 357.311 653.113 361.046C654.229 364.782 657.213 367.605 660.813 367.666" stroke="#DE511B" stroke-miterlimit="10" stroke-linecap="round" stroke-linejoin="round"/>
<path d="M639.067 313.351C638.364 315.004 637.682 316.746 637.535 318.423C637.411 320.189 638.008 321.899 639.336 322.444C640.641 322.9 642.119 322.167 643.515 321.475C647.106 319.595 651.09 317.82 654.647 318.463C655.227 318.577 655.909 318.74 656.165 319.416" stroke="#DE511B" stroke-miterlimit="10" stroke-linecap="round" stroke-linejoin="round"/>
<path d="M651.413 308.909C654.38 307.898 657.367 308.596 659.712 310.357C661.968 312.162 663.533 314.839 664.381 317.865C664.755 318.973 664.973 320.263 664.898 321.589C664.762 323.481 664.016 325.347 663.27 327.213C661.713 331.085 660.382 335.061 660.158 339.038C660.078 339.936 660.111 340.886 660.504 341.662C660.897 342.438 661.625 342.944 662.456 342.648" stroke="#DE511B" stroke-miterlimit="10" stroke-linecap="round" stroke-linejoin="round"/>
<path d="M646.231 320.06C648.377 317.68 651.028 315.887 653.751 315.069" stroke="#DE511B" stroke-miterlimit="10" stroke-linecap="round" stroke-linejoin="round"/>
<path d="M659.732 311.275C659.766 308.083 659.169 304.961 657.921 302.249" stroke="#DE511B" stroke-miterlimit="10" stroke-linecap="round" stroke-linejoin="round"/>
<path d="M662.363 331.722C662.041 333.119 662.457 334.458 663.456 335.094C664.349 335.68 665.719 335.513 666.722 334.601" stroke="#DE511B" stroke-miterlimit="10" stroke-linecap="round" stroke-linejoin="round"/>
<path d="M667.288 329.672C668.108 329.055 668.974 328.626 669.84 328.197C670.36 327.94 670.903 327.777 671.381 327.752C672.448 327.752 673.178 328.763 673.366 329.938C673.553 331.112 673.285 332.407 672.994 333.607C672.179 336.651 671.036 339.54 669.565 342.275C669.032 343.278 668.413 344.324 668.381 345.395C668.35 346.467 669.103 347.573 669.969 347.144" stroke="#DE511B" stroke-miterlimit="10" stroke-linecap="round" stroke-linejoin="round"/>
<path d="M671.532 338.18C670.928 339.443 671.519 340.995 672.534 341.372" stroke="#DE511B" stroke-miterlimit="10" stroke-linecap="round" stroke-linejoin="round"/>
<path d="M605.708 328.145C607.703 326.312 609.964 324.772 612.281 324.265C614.598 323.757 617.057 324.239 618.481 326.08C618.637 326.321 618.77 326.467 618.839 326.751C618.844 327.173 618.651 327.586 618.523 327.861C616.96 331.07 615.971 334.632 615.551 338.126C615.313 340.363 615.585 343.09 617.517 343.408C618.219 343.486 618.939 343.236 619.618 343.219C620.999 343.279 622.023 344.682 622.217 346.282C622.498 347.839 622.122 349.509 621.834 351.135C621.361 349.99 620.003 350.025 618.737 350.438C617.558 350.808 616.384 351.599 615.117 352.012" stroke="#DE511B" stroke-miterlimit="10" stroke-linecap="round" stroke-linejoin="round"/>
<path d="M620.467 344.238C619.624 343.254 618.756 342.174 618.426 340.833C618.072 339.396 618.523 337.567 619.705 336.67" stroke="#DE511B" stroke-miterlimit="10" stroke-linecap="round" stroke-linejoin="round"/>
<path d="M617.419 326.539C615.917 326.231 614.163 326.689 612.879 327.943" stroke="#DE511B" stroke-miterlimit="10" stroke-linecap="round" stroke-linejoin="round"/>
<path d="M614.403 323.638C613.349 322.475 613.797 319.935 615.173 318.832" stroke="#DE511B" stroke-miterlimit="10" stroke-linecap="round" stroke-linejoin="round"/>
<path d="M626.198 341.484C626.85 342.206 627.035 343.37 626.919 344.474C626.803 345.578 626.408 346.717 626.291 347.821C625.87 350.438 626.523 353.148 627.981 354.83C628.134 355.068 628.373 355.263 628.674 355.323C628.998 355.475 629.362 355.399 629.727 355.323C631.826 354.906 633.962 353.844 635.922 352.451" stroke="#DE511B" stroke-miterlimit="10" stroke-linecap="round" stroke-linejoin="round"/>
<path d="M628.815 355.118C627.744 353.044 628.669 349.767 630.705 348.336" stroke="#DE511B" stroke-miterlimit="10" stroke-linecap="round" stroke-linejoin="round"/>
<path d="M621.598 313.404C623.023 314.242 625.021 313.555 626.333 311.972C627.668 310.481 628.277 308.321 628.276 306.361C628.275 304.402 627.748 302.601 626.991 301.019" stroke="#DE511B" stroke-miterlimit="10" stroke-linecap="round" stroke-linejoin="round"/>
<path d="M627.111 311.922C625.567 315.35 625.321 319.211 626.406 322.422" stroke="#DE511B" stroke-miterlimit="10" stroke-linecap="round" stroke-linejoin="round"/>
<path d="M620.76 324.561C620.82 326.012 621.274 327.481 622.244 328.271C623.301 329.019 625.003 328.812 625.84 327.447C624.523 328.838 623.417 331.501 624.2 333.125" stroke="#DE511B" stroke-miterlimit="10" stroke-linecap="round" stroke-linejoin="round"/>
<path d="M612.088 347.36C611.3 347.748 610.572 347.576 609.843 347.403C606.243 346.308 604.384 341.487 605.764 337.088" stroke="#DE511B" stroke-miterlimit="10" stroke-linecap="round" stroke-linejoin="round"/>
<path d="M609.44 347.296C608.234 346.755 606.464 347.498 605.662 348.893" stroke="#DE511B" stroke-miterlimit="10" stroke-linecap="round" stroke-linejoin="round"/>
<path d="M606.482 344.347C605.749 342.917 606.157 340.604 607.381 339.26" stroke="#DE511B" stroke-miterlimit="10" stroke-linecap="round" stroke-linejoin="round"/>
<path d="M609.264 365.367C610.879 364.868 612.132 363.258 613.47 362.002C614.951 360.578 616.578 359.378 618.398 358.976C620.218 358.574 622.048 358.96 623.049 360.449C623.882 361.624 624.437 363.532 625.893 363.507C626.816 363.548 627.812 362.759 628.756 362.888C630.092 363.121 630.136 365.181 630.806 366.437" stroke="#DE511B" stroke-miterlimit="10" stroke-linecap="round" stroke-linejoin="round"/>
<path d="M617.682 358.58C619.92 359.955 621.519 362.391 621.958 365.393" stroke="#DE511B" stroke-miterlimit="10" stroke-linecap="round" stroke-linejoin="round"/>
<path d="M623.47 361.234C624.924 361.296 626.484 359.967 626.969 358.297" stroke="#DE511B" stroke-miterlimit="10" stroke-linecap="round" stroke-linejoin="round"/>
<path d="M612.848 361.166C613.523 359.761 612.996 358.066 611.862 357.636" stroke="#DE511B" stroke-miterlimit="10" stroke-linecap="round" stroke-linejoin="round"/>
<path d="M634.497 344.845C635.785 343.68 637.457 343.282 638.829 343.671C640.201 344.059 641.251 345.139 641.972 346.486C643.822 350.043 643.067 355.414 640.219 359.049C639.457 359.956 638.584 360.811 638.09 362.011C637.574 363.116 637.856 364.679 638.785 364.86" stroke="#DE511B" stroke-miterlimit="10" stroke-linecap="round" stroke-linejoin="round"/>
<path d="M640.369 359.867C640.681 362.354 642.425 364.344 644.629 364.627" stroke="#DE511B" stroke-miterlimit="10" stroke-linecap="round" stroke-linejoin="round"/>
<path d="M642.704 351.975C643.536 352.431 644.742 352.23 645.641 351.512" stroke="#DE511B" stroke-miterlimit="10" stroke-linecap="round" stroke-linejoin="round"/>
<path d="M641.909 347.665C640.515 346.406 638.284 346.524 636.658 347.996" stroke="#DE511B" stroke-miterlimit="10" stroke-linecap="round" stroke-linejoin="round"/>
<path d="M639.262 343.945C638.061 342.963 638.462 340.238 639.967 339.281" stroke="#DE511B" stroke-miterlimit="10" stroke-linecap="round" stroke-linejoin="round"/>
<path d="M637.548 335.819C639.314 334.524 641.477 334.482 642.951 335.508C644.448 336.626 645.089 338.896 644.69 341.166" stroke="#DE511B" stroke-miterlimit="10" stroke-linecap="round" stroke-linejoin="round"/>
<path d="M646.926 367.785C649.647 371.476 654.952 372.316 659.237 369.714C659.644 369.514 661.249 368.625 661.091 369.098" stroke="#DE511B" stroke-miterlimit="10" stroke-linecap="round" stroke-linejoin="round"/>
<path d="M651.617 370.498C650.611 369.187 650.827 366.849 652.043 365.399" stroke="#DE511B" stroke-miterlimit="10" stroke-linecap="round" stroke-linejoin="round"/>
<path d="M643.738 322C645.296 322.16 646.609 323.275 647.328 324.685" stroke="#DE511B" stroke-miterlimit="10" stroke-linecap="round" stroke-linejoin="round"/>
<path d="M658.085 348.124C660.36 349.117 663.281 348.575 665.606 346.711C664.289 347.77 664.095 350.801 665.309 351.614" stroke="#DE511B" stroke-miterlimit="10" stroke-linecap="round" stroke-linejoin="round"/>
<path d="M642.968 303.962C642.96 305.088 642.974 306.306 643.298 307.266C643.644 308.318 644.384 309.071 645.408 309.071C645.324 307.175 646.925 304.542 648.636 304.301" stroke="#DE511B" stroke-miterlimit="10" stroke-linecap="round" stroke-linejoin="round"/>
<path d="M636.112 288.056C638.136 290.013 641.421 289.677 644.248 288.583C647.096 287.576 649.956 285.875 652.792 285.563C655.709 285.211 658.789 286.649 659.193 289.797C657.76 289.517 656.1 289.054 654.552 289.422C653.004 289.789 651.465 290.939 650.79 292.649" stroke="#DE511B" stroke-miterlimit="10" stroke-linecap="round" stroke-linejoin="round"/>
<path d="M657.601 288.211C656.928 286.988 657.541 284.814 658.894 284.139" stroke="#DE511B" stroke-miterlimit="10" stroke-linecap="round" stroke-linejoin="round"/>
<path d="M671.546 299.778C676.947 297.133 682.64 300.541 684.684 306.056C685.328 307.877 685.618 309.871 685.13 311.926C684.451 314.823 682.252 317.181 680.701 319.756C678.145 323.893 677.224 329.043 678.187 333.379C680.428 330.786 682.804 328.341 685.525 326.901C688.335 325.419 691.672 325.28 693.566 327.344C695.142 328.922 695.53 331.723 695.182 334.35C694.834 336.977 693.684 339.57 692.511 342.067C693.307 339.648 691.445 336.5 689.329 336.362" stroke="#DE511B" stroke-miterlimit="10" stroke-linecap="round" stroke-linejoin="round"/>
<path d="M693.785 341.143C695.001 340.049 697.564 338.693 698.877 338.983" stroke="#DE511B" stroke-miterlimit="10" stroke-linecap="round" stroke-linejoin="round"/>
<path d="M687.132 320.66C689.406 319.146 692.233 319.531 693.626 321.509C692.768 319.859 693.328 316.919 694.886 315.461" stroke="#DE511B" stroke-miterlimit="10" stroke-linecap="round" stroke-linejoin="round"/>
<path d="M697.311 320.82C698.223 321.416 698.391 322.906 698.017 324.141C697.643 325.376 696.858 326.5 696.074 327.625" stroke="#DE511B" stroke-miterlimit="10" stroke-linecap="round" stroke-linejoin="round"/>
<path d="M682.624 316.027C682.975 314.701 682.672 312.653 681.951 311.65C681.231 310.647 680.151 310.137 679.03 309.857C678.103 309.585 677.113 309.449 676.06 309.449" stroke="#DE511B" stroke-miterlimit="10" stroke-linecap="round" stroke-linejoin="round"/>
<path d="M672.692 301.797C673.855 302.424 676.112 303.01 677.474 302.937" stroke="#DE511B" stroke-miterlimit="10" stroke-linecap="round" stroke-linejoin="round"/>
<path d="M669.055 291.067C667.286 293.312 666.151 296.188 665.967 299.013C665.783 301.838 666.527 304.518 667.954 306.438C667.152 306.31 666.053 306.54 665.238 307.155" stroke="#DE511B" stroke-miterlimit="10" stroke-linecap="round" stroke-linejoin="round"/>
<path d="M672.22 300.335C673.234 301.141 673.709 304.687 672.672 305.835" stroke="#DE511B" stroke-miterlimit="10" stroke-linecap="round" stroke-linejoin="round"/>
<path d="M679.089 299.457C678.368 298.615 676.806 296.449 676.997 295.169" stroke="#DE511B" stroke-miterlimit="10" stroke-linecap="round" stroke-linejoin="round"/>
<path d="M684.568 295.596C685.289 295.028 686.121 294.927 686.892 294.961C689.95 295.003 692.521 297.374 693.222 300.676C693.424 301.514 693.455 302.437 692.995 303.292" stroke="#DE511B" stroke-miterlimit="10" stroke-linecap="round" stroke-linejoin="round"/>
<path d="M688.903 295.277C689.32 295.389 689.632 295.87 689.66 296.386C689.687 296.902 689.628 297.46 689.459 297.968C689.249 298.707 688.952 299.489 688.544 300.219" stroke="#DE511B" stroke-miterlimit="10" stroke-linecap="round" stroke-linejoin="round"/>
<path d="M683.508 290.779C682.924 290.753 682.367 291.24 681.941 291.872C681.601 292.462 681.393 293.196 681.357 293.845C681.222 295.28 681.499 296.826 682.61 297.432" stroke="#DE511B" stroke-miterlimit="10" stroke-linecap="round" stroke-linejoin="round"/>
<path d="M691.52 307.978C691.711 308.754 692.424 309.083 693.094 309.24C694.413 309.467 695.829 309.357 697.22 308.777C698.128 308.433 699.133 307.751 699.505 306.701C699.505 306.701 699.565 306.575 699.543 306.489C699.522 306.403 699.463 306.528 699.463 306.528" stroke="#DE511B" stroke-miterlimit="10" stroke-linecap="round" stroke-linejoin="round"/>
<path d="M694.363 309.537C695.801 309.235 698.21 310.621 698.398 312.184" stroke="#DE511B" stroke-miterlimit="10" stroke-linecap="round" stroke-linejoin="round"/>
<path d="M633.185 334.984C631.787 334.167 631.556 331.603 632.859 330.003" stroke="#DE511B" stroke-miterlimit="10" stroke-linecap="round" stroke-linejoin="round"/>
<path d="M652.829 359.238C653.108 356.606 654.929 353.91 657.16 352.905" stroke="#DE511B" stroke-miterlimit="10" stroke-linecap="round" stroke-linejoin="round"/>
<path d="M653.179 347.236C653.173 344.748 652.13 342.647 650.539 341.24" stroke="#DE511B" stroke-miterlimit="10" stroke-linecap="round" stroke-linejoin="round"/>
<path d="M668.412 360.25C671.907 357.297 676.68 356.949 679.798 359.352" stroke="black" stroke-miterlimit="10" stroke-linecap="round" stroke-linejoin="round"/>
<path d="M671.045 353.488C672.194 353.876 673.24 354.632 674.031 355.514C674.449 356.049 674.564 356.521 674.749 357.277" stroke="black" stroke-miterlimit="10" stroke-linecap="round" stroke-linejoin="round"/>
<path d="M659.722 281.154C664.497 280.658 669.045 282.635 672.061 286.289" stroke="white" stroke-miterlimit="10" stroke-linecap="round" stroke-linejoin="round"/>
<path d="M656.488 296.305C659.483 297.899 661.326 301.663 661.241 305.701" stroke="white" stroke-miterlimit="10" stroke-linecap="round" stroke-linejoin="round"/>
<path d="M687.44 291.675C691.402 290.86 695.324 292.532 697.466 296.004" stroke="white" stroke-miterlimit="10" stroke-linecap="round" stroke-linejoin="round"/>
<path d="M683.457 302.182C685.643 304.563 686.581 308.177 686.059 311.809" stroke="white" stroke-miterlimit="10" stroke-linecap="round" stroke-linejoin="round"/>
<path d="M645.826 302.562C647.44 300.44 650.252 299.873 652.008 301.161" stroke="white" stroke-miterlimit="10" stroke-linecap="round" stroke-linejoin="round"/>
<path d="M649.893 311.25C654.072 310.342 658.186 313.008 659.359 317.433" stroke="white" stroke-miterlimit="10" stroke-linecap="round" stroke-linejoin="round"/>
<path d="M650.356 327.198C652.157 328.057 653.376 330.165 653.398 332.633" stroke="white" stroke-miterlimit="10" stroke-linecap="round" stroke-linejoin="round"/>
<path d="M641.821 313.058C642.976 312.19 644.605 312.505 645.262 313.697" stroke="white" stroke-miterlimit="10" stroke-linecap="round" stroke-linejoin="round"/>
<path d="M637.651 291.994C639.196 293.567 639.917 295.961 639.704 298.352" stroke="white" stroke-miterlimit="10" stroke-linecap="round" stroke-linejoin="round"/>
<path d="M629.362 303.012C630.18 304.676 630.243 306.916 629.559 308.972" stroke="white" stroke-miterlimit="10" stroke-linecap="round" stroke-linejoin="round"/>
<path d="M644.021 332.834C645.117 332.712 646.121 333.367 646.5 334.537" stroke="white" stroke-miterlimit="10" stroke-linecap="round" stroke-linejoin="round"/>
<path d="M687.529 330.584C688.827 329.132 691.115 329.846 691.374 331.656" stroke="white" stroke-miterlimit="10" stroke-linecap="round" stroke-linejoin="round"/>
<path d="M670.258 324.757C672.137 325.004 673.587 326.625 673.989 328.654" stroke="white" stroke-miterlimit="10" stroke-linecap="round" stroke-linejoin="round"/>
<path d="M699.456 318.213C700.719 321.275 700.675 325.072 699.461 328.566" stroke="white" stroke-miterlimit="10" stroke-linecap="round" stroke-linejoin="round"/>
<path d="M630.631 345.988C632.459 346.611 633.67 348.713 633.644 350.982" stroke="white" stroke-miterlimit="10" stroke-linecap="round" stroke-linejoin="round"/>
<path d="M608.86 334.249C608.875 336.33 609.421 338.391 610.419 340.137" stroke="white" stroke-miterlimit="10" stroke-linecap="round" stroke-linejoin="round"/>
<path d="M602.724 354.009C602.724 354.009 604.611 370.785 618.222 369.592C619.099 369.485 620.033 369.248 620.967 369.012C623.076 368.423 628.773 367.371 636.049 370.427C636.049 370.427 647.952 373.559 663.501 367.518" stroke="black" stroke-miterlimit="10" stroke-linecap="round" stroke-linejoin="round"/>
<path d="M657.728 368.384C650.001 363.977 652.756 351.891 652.756 351.891" stroke="black" stroke-miterlimit="10" stroke-linecap="round" stroke-linejoin="round"/>
<path d="M670.739 349.9C670.739 349.9 667.834 356.542 663.347 356.16C662.33 356.119 661.337 356.172 660.357 356.64C657.987 357.77 654.547 360.462 655.788 366.493C655.788 366.493 656.536 371.288 663.206 370.524C664.549 370.409 665.962 369.84 667.292 369.311C668.705 368.742 671.368 368.418 674.252 372.614C674.252 372.614 679.163 378.682 683.987 373.122" stroke="black" stroke-miterlimit="10" stroke-linecap="round" stroke-linejoin="round"/>
<path d="M580.852 458.573C578.479 457.938 576.464 456.123 574.378 454.489C571.069 451.948 567.544 449.77 563.66 449.134C559.847 448.499 555.747 449.497 552.726 452.583C548.913 456.576 547.546 463.111 546.611 469.192C545.676 475.364 544.885 481.898 541.648 486.618C540.928 487.707 540.065 488.705 539.49 490.067C538.986 491.337 538.842 493.062 539.634 494.151C539.993 494.695 540.497 494.968 541 495.24C544.957 497.236 549.489 496.057 553.301 493.515C554.021 493.062 554.74 492.517 555.603 492.336C556.466 492.245 557.33 492.517 558.121 492.789C563.948 494.786 570.134 494.786 575.961 492.789C581.931 497.146 589.7 496.238 595.887 492.336C602.073 488.433 606.821 481.717 610.705 474.547C611.497 473.095 612.144 471.007 611.065 469.918C610.49 469.283 609.626 469.373 608.907 469.464C598.98 470.553 590.564 461.205 580.852 458.573Z" fill="#A7481F"/>
<path d="M579.126 492.517C580.277 487.616 581.14 482.715 581.716 477.633C582.291 472.732 582.507 467.558 581.212 462.93C580.781 461.387 580.061 459.481 579.126 458.029C579.054 456.94 579.846 455.941 579.558 454.943C579.342 454.308 578.766 453.945 578.263 453.672C577.975 453.491 577.615 453.4 577.328 453.581C577.112 453.763 577.04 454.035 576.968 454.308C576.752 455.215 576.752 456.123 576.968 457.03C576.752 459.299 578.407 462.294 578.838 464.382C579.63 467.831 579.845 471.461 579.414 475.001C578.766 480.718 576.608 486.073 576.249 491.791C576.177 493.062 576.465 494.786 577.472 494.877C578.407 494.786 578.91 493.515 579.126 492.517Z" fill="#F4D4DE"/>
<path d="M576.464 456.576C576.968 458.664 577.687 460.661 578.263 462.748C579.413 467.104 579.701 471.733 579.198 476.271C578.982 478.177 578.622 479.992 578.263 481.807C577.543 485.529 576.824 489.25 576.104 492.971" stroke="black" stroke-miterlimit="10" stroke-linecap="round" stroke-linejoin="round"/>
<path d="M591.786 465.834C595.527 469.011 599.771 471.28 604.231 472.278" stroke="white" stroke-miterlimit="10" stroke-linecap="round" stroke-linejoin="round"/>
<path d="M570.925 454.761C567.904 453.581 564.595 452.946 561.502 453.672C558.337 454.398 555.315 456.667 553.805 460.207" stroke="white" stroke-miterlimit="10" stroke-linecap="round" stroke-linejoin="round"/>
<path d="M554.524 450.586C549.992 454.398 548.266 461.659 547.187 468.284C546.108 475.001 545.244 482.171 541.648 487.344C540.713 488.705 538.626 490.974 539.058 492.699C539.346 493.969 540.569 495.24 541.576 495.603C543.878 496.42 547.187 496.601 549.417 495.512C551.215 494.605 552.87 493.152 554.668 492.245" stroke="black" stroke-miterlimit="10" stroke-linecap="round" stroke-linejoin="round"/>
<path d="M1179.13 413.331C1177.99 422.31 1180.18 431.902 1185.11 438.637C1188.67 432.515 1196.84 431.392 1201.85 435.678C1206.79 439.964 1209.13 447.923 1208.89 455.474C1208.65 463.025 1206.14 470.168 1203.07 476.699C1197.4 488.638 1188.83 499.556 1177.99 501.699C1165.22 504.25 1152.92 493.944 1144.51 481.597C1142.65 478.842 1140.95 475.985 1138.69 473.944C1135.53 471.087 1131 469.76 1127.77 473.944C1126.56 475.474 1126.39 477.821 1126.88 479.964C1127.12 480.883 1126.23 482.005 1125.42 482.209C1124.61 482.413 1123.81 482.107 1123 481.903C1120.17 480.985 1116.77 479.352 1117.01 475.066C1117.09 474.352 1117.17 473.638 1117.42 473.025C1120.33 464.658 1127.85 460.066 1135.05 460.474C1141.84 460.882 1148.23 465.066 1153.33 470.78C1155.19 472.923 1157.21 471.495 1159.39 469.862C1160.52 469.046 1161.58 467.923 1162.38 466.597C1166.19 460.372 1171.36 455.372 1177.1 452.311C1174.19 451.086 1172.74 448.637 1171.44 445.27C1170.31 442.311 1169.66 439.147 1169.42 435.984C1168.77 427.515 1169.34 418.433 1172.33 410.882C1172.98 409.249 1174.44 408.331 1175.89 408.637C1175.97 408.637 1176.05 408.637 1176.13 408.637C1178.08 408.535 1179.45 410.882 1179.13 413.331Z" fill="#F4D4DE"/>
<path d="M1172.74 410.371C1174.6 410.984 1176.54 411.188 1178.48 410.78" stroke="black" stroke-miterlimit="10" stroke-linecap="round" stroke-linejoin="round"/>
<path d="M1117.5 476.291C1120.73 475.985 1124.05 477.515 1126.39 480.372" stroke="black" stroke-miterlimit="10" stroke-linecap="round" stroke-linejoin="round"/>
<path d="M1126.88 476.903C1126.88 476.903 1126.64 470.678 1135.45 471.801C1135.45 471.801 1139.9 472.719 1144.51 481.597C1149.12 490.475 1160.52 500.679 1168.37 501.393" stroke="black" stroke-miterlimit="10" stroke-linecap="round" stroke-linejoin="round"/>
<path d="M1162.14 489.352C1166.83 494.046 1173.3 495.883 1179.21 494.148" stroke="#DE511B" stroke-miterlimit="10" stroke-linecap="round" stroke-linejoin="round"/>
<path d="M1165.46 475.985C1167.64 476.495 1170.88 472.719 1172.58 470.78C1174.27 468.842 1175.49 466.495 1176.86 464.25C1178.32 462.005 1180.02 459.862 1181.8 457.923C1184.14 455.27 1186.89 452.719 1190.04 452.617C1193.6 452.413 1196.92 455.576 1198.29 459.556C1199.75 463.638 1199.43 468.434 1198.05 472.515C1196.68 476.597 1194.25 480.066 1191.66 482.924" stroke="#DE511B" stroke-miterlimit="10" stroke-linecap="round" stroke-linejoin="round"/>
<path d="M1172.58 410.474C1170.47 417.617 1169.18 422.004 1168.94 432.005C1168.77 439.658 1169.66 446.699 1176.54 452.005" stroke="black" stroke-miterlimit="10" stroke-linecap="round" stroke-linejoin="round"/>
<path d="M1200.72 440.372C1204.12 445.168 1205.9 451.699 1205.65 458.127" stroke="white" stroke-miterlimit="10" stroke-linecap="round" stroke-linejoin="round"/>
<path d="M379.5 63.2834C378.463 62.8365 377.726 61.887 376.966 60.9748C375.534 59.2343 374.094 57.5288 372.338 56.2956C370.411 54.9432 368.377 54.392 366.189 54.8166C365.431 54.9689 364.677 55.0537 363.908 55.1082C362.059 55.2725 360.85 54.2243 360.233 52.0055C359.749 50.2784 359.64 48.4845 359.58 46.6651C359.433 42.6651 359.752 38.7149 360.457 34.8119C360.529 34.3998 360.476 34.1597 360.161 33.9332C358.488 32.735 356.839 31.516 355.148 30.2712C353.716 32.1578 352.297 34.042 350.853 35.9309C351.35 37.1897 351.855 38.4136 352.313 39.6794C353.582 43.1294 354.473 46.7301 354.933 50.4745C355.05 51.4018 355.053 52.3662 354.987 53.2932C354.824 55.4687 353.913 56.7296 352.229 57.1807C351.17 57.4699 350.085 57.6473 349.026 57.9365C346.918 58.48 345.275 60.0051 343.866 61.9709C342.559 63.8017 341.63 65.9478 340.644 68.0542C340.211 68.9968 339.732 69.8811 339.002 70.5274C338.783 70.5666 338.551 70.6081 338.332 70.6472C337.598 70.4292 337.132 69.7971 336.755 69.016C335.775 66.9619 335.091 64.7383 334.584 62.4498C332.314 52.1912 332.006 41.8477 333.928 31.4548C334.711 27.0721 336.092 22.9818 338.395 19.4918C340.024 17.0209 341.991 15.1051 344.428 14.087C345.997 13.4237 347.377 14.1251 348.223 15.9204C348.779 17.1188 349.006 18.4423 349.157 19.7797C349.466 22.5361 349.358 25.3173 349.235 28.0845C349.207 28.7716 349.207 29.4705 349.197 30.3207C349.372 30.123 349.468 30.0394 349.549 29.9417C350.441 28.7506 351.316 27.5293 352.222 26.3522C352.451 26.0452 352.512 25.7681 352.466 25.3603C351.791 19.4748 351.132 13.6033 350.483 7.71312C350.314 6.21262 350.768 5.09997 351.735 4.57763C352.838 3.981 354.128 4.69855 354.514 6.14355C354.604 6.47684 354.655 6.81704 354.694 7.15954C355.343 12.9332 356.006 18.7209 356.629 24.4992C356.686 25.0048 356.837 25.2939 357.179 25.5322C358.223 26.2772 359.246 27.0758 360.28 27.8558C360.424 27.9632 360.58 28.0683 360.878 28.2645C360.617 27.2298 360.413 26.3512 360.173 25.4958C359.379 22.643 358.624 19.7833 358.452 16.7361C358.421 16.1094 358.427 15.4595 358.488 14.8329C358.769 12.0707 360.153 10.6919 362.38 10.9755C365.436 11.3772 368.066 13.0198 370.385 15.5166C373.27 18.6109 375.338 22.5003 376.987 26.764C379.484 33.1887 380.97 39.9773 381.675 47.0719C382.098 51.3053 382.14 55.5404 381.577 59.7674C381.504 60.296 381.392 60.8153 381.277 61.3183C381.102 62.0983 380.78 62.7383 380.194 63.1426C379.951 63.2027 379.719 63.2442 379.5 63.2834ZM353.392 21.551C353.405 21.7817 353.414 21.9797 353.436 22.1754C353.575 23.4149 353.74 24.6499 353.841 25.8963C353.865 26.2248 353.782 26.6557 353.61 26.886C352.245 28.7773 350.852 30.6569 349.457 32.5202C348.978 33.1716 348.382 33.0121 348.195 32.1638C348.029 31.3948 347.86 30.5931 347.864 29.8104C347.856 27.2829 347.968 24.7673 347.96 22.2398C347.952 20.5276 347.8 18.8244 347.254 17.2417C346.708 15.659 345.852 15.1798 344.569 15.8087C341.814 17.1501 339.758 19.5643 338.173 22.6595C336.035 26.802 334.992 31.4474 334.445 36.2871C333.54 44.385 333.879 52.427 335.48 60.3596C335.992 62.93 336.731 65.4099 337.706 67.7645C337.884 68.1818 338.136 68.5527 338.429 69.0494C338.759 68.4746 339.011 68.0302 339.251 67.588C340.355 65.4772 341.342 63.2707 342.566 61.2882C344.165 58.6729 346.251 56.8691 348.887 56.231C349.821 55.9975 350.78 55.8758 351.708 55.5933C353.261 55.1327 353.696 54.3228 353.667 52.3147C353.635 49.8081 353.055 47.4496 352.502 45.1028C351.796 42.1011 350.68 39.306 349.529 36.5504C349.205 35.7764 349.237 35.5878 349.694 34.9736C351.227 32.9359 352.774 30.9121 354.307 28.8743C354.788 28.2392 354.968 28.207 355.57 28.6484C357.46 30.0239 359.337 31.4018 361.215 32.7797C361.96 33.3285 362.012 33.4358 361.831 34.5163C361.291 37.7906 360.833 41.0836 360.87 44.4545C360.893 46.6465 360.89 48.8432 361.356 51.0059C361.764 52.8795 362.386 53.5003 363.901 53.4123C364.634 53.3811 365.349 53.1867 366.08 53.1391C367.006 53.0733 367.928 52.9749 368.849 53.093C371.306 53.4354 373.386 54.8602 375.263 56.8205C376.424 58.027 377.51 59.3801 378.638 60.6425C378.939 60.9878 379.287 61.275 379.701 61.6834C379.858 61.0897 380.033 60.659 380.074 60.2025C380.263 58.3719 380.492 56.5507 380.548 54.7105C380.709 50.0565 380.221 45.4851 379.423 40.9528C378.481 35.6142 377.103 30.4867 375.012 25.6864C373.383 21.9516 371.398 18.5631 368.652 16.0096C366.668 14.1516 364.471 12.9642 361.984 12.7103C360.68 12.5774 359.962 13.3215 359.779 14.9681C359.719 15.4945 359.714 16.0279 359.734 16.5567C359.865 19.3617 360.567 21.9813 361.283 24.615C361.712 26.2022 362.217 27.7755 362.176 29.5132C362.153 30.5987 361.669 30.9682 360.938 30.4334C359.23 29.1583 357.522 27.8833 355.836 26.5709C355.604 26.3795 355.4 25.9668 355.347 25.6103C355.158 24.3963 355.059 23.1661 354.924 21.9592C354.9 21.7472 354.863 21.5374 354.826 21.3277C354.333 21.3827 353.882 21.4634 353.392 21.551ZM352.067 9.99197C352.595 9.89745 353.072 9.81214 353.575 9.72223C353.467 8.75995 353.375 7.82798 353.245 6.90294C353.168 6.3344 352.805 6.03322 352.406 6.10469C351.993 6.17847 351.7 6.61354 351.755 7.21931C351.843 8.11865 351.959 9.0297 352.067 9.99197ZM352.642 14.8803C353.158 14.7881 353.635 14.7028 354.112 14.6175C353.993 13.5573 353.879 12.5461 353.764 11.5186C353.261 11.6085 352.797 11.6915 352.294 11.7814C352.41 12.809 352.523 13.8202 352.642 14.8803ZM352.84 16.6418C352.959 17.7019 353.075 18.7294 353.192 19.7733C353.695 19.6833 354.159 19.6003 354.649 19.5127C354.53 18.4526 354.414 17.4251 354.297 16.3812C353.807 16.4689 353.356 16.5495 352.84 16.6418Z" fill="black" fill-opacity="0.1"/>
<path d="M375.337 43.3752C374.819 38.9934 373.824 34.7953 372.045 30.9351C371.753 30.3129 371.412 29.7159 371.096 29.1144C370.798 28.559 370.835 28.0752 371.167 27.7692C371.511 27.4609 371.878 27.5925 372.189 28.1457C373.861 31.0544 374.946 34.315 375.749 37.7412C376.33 40.2365 376.695 42.7869 376.908 45.3808C376.962 46.095 376.775 46.5233 376.365 46.5966C375.93 46.6745 375.651 46.2803 375.569 45.5546C375.513 44.8243 375.419 44.1009 375.337 43.3752Z" fill="black" fill-opacity="0.1"/>
<path d="M1552.33 407.768C1553.5 408.502 1554.68 409.191 1555.83 409.992C1559.98 412.932 1563.08 417.243 1565.78 422.079C1568.33 426.608 1569.76 431.575 1569.63 437.142C1569.48 443.241 1568.53 449.143 1566.14 454.546C1564.95 457.225 1563.29 459.376 1561.39 461.259C1560.16 462.48 1558.87 463.606 1557.62 464.797C1553.43 468.824 1550.98 474.132 1550.01 480.661C1549.37 484.927 1549.22 489.169 1549.58 493.487C1549.88 497.174 1547.57 499.53 1544.77 498.419C1537.37 495.482 1529.96 492.539 1522.57 489.603C1520.89 488.939 1520.06 487.461 1519.86 485.254C1519.66 483.098 1519.34 480.968 1519.06 478.829C1519.04 478.697 1518.99 478.558 1518.95 478.419C1518.22 475.929 1518.06 475.866 1515.99 475.851C1513.21 475.845 1510.44 475.772 1507.65 475.618C1505.17 475.487 1503.52 473.172 1503.45 470.041C1503.4 468.089 1503.77 466.305 1504.6 464.658C1505.22 463.413 1505.18 462.906 1504.39 461.788C1504.23 461.577 1504.07 461.367 1503.93 461.142C1503.2 460.044 1503.15 459.095 1503.78 457.88C1503.9 457.634 1504.05 457.424 1504.21 457.17C1504 456.77 1503.81 456.376 1503.59 455.997C1503.01 454.838 1503.03 454.137 1503.74 453.075C1504.14 452.477 1504.62 451.958 1505.05 451.396C1505.83 450.34 1505.84 449.706 1505.06 448.639C1504.55 447.95 1504.04 447.305 1503.55 446.6C1502.29 444.682 1502.36 442.631 1503.95 441.138C1505.45 439.705 1507.08 438.498 1508.71 437.261C1510.07 436.237 1511.15 434.931 1511.85 433.11C1512.06 432.605 1512.37 432.141 1512.68 431.729C1513.07 431.249 1513.09 430.791 1512.86 430.258C1512.7 429.93 1512.58 429.586 1512.43 429.258C1511.29 426.902 1511.35 425.213 1512.65 422.995C1513.01 422.405 1513.5 421.916 1513.83 421.29C1514.78 419.611 1515.72 417.932 1516.59 416.203C1519.14 411.254 1522.41 407.373 1526.83 405.244C1529.91 403.777 1533.13 403.686 1536.36 403.97C1540.02 404.274 1543.65 404.763 1547.21 405.859C1547.36 405.892 1547.53 405.889 1547.68 405.9C1549.25 406.544 1550.79 407.16 1552.33 407.768ZM1552.99 456.288C1553.06 457.488 1553.17 458.584 1553.17 459.682C1553.17 461.392 1552.61 462.879 1551.37 463.51C1550.28 464.056 1549.82 464.973 1549.46 466.175C1549.33 466.635 1549.11 467.059 1548.92 467.476C1547.26 471.042 1546.01 474.799 1545.38 478.873C1544.57 484.095 1544.51 489.373 1544.7 494.654C1544.7 494.875 1544.77 495.242 1544.84 495.27C1545.42 495.405 1546.07 495.686 1546.61 495.512C1547.22 495.337 1547.32 494.546 1547.26 493.788C1546.83 489.05 1547.04 484.344 1547.78 479.677C1548.67 474.071 1550.56 469.077 1553.85 465.107C1555.37 463.269 1557.1 461.706 1558.8 460.084C1561.08 457.912 1563.18 455.545 1564.5 452.281C1565.69 449.359 1566.36 446.205 1566.82 442.989C1567.26 439.891 1567.51 436.79 1567.14 433.636C1566.65 429.46 1565.09 425.956 1563.19 422.562C1559.33 415.68 1554.25 411.146 1547.76 409.105C1543.63 407.808 1539.44 407.146 1535.2 406.906C1532.63 406.763 1530.08 406.876 1527.65 408.086C1523.66 410.044 1520.76 413.63 1518.46 418.116C1517.41 420.144 1516.26 422.107 1515.07 424.027C1513.61 426.38 1513.76 426.148 1514.73 428.339C1515.05 429.076 1515.22 429.95 1515.33 430.802C1515.48 431.838 1515.14 432.73 1514.61 433.523C1514.27 434.046 1513.93 434.621 1513.65 435.216C1512.79 437.1 1511.63 438.591 1510.15 439.692C1509.18 440.406 1508.19 441.113 1507.25 441.885C1506.47 442.506 1505.76 443.199 1504.87 443.97C1505.54 444.921 1506.1 445.779 1506.7 446.555C1508.49 448.926 1508.5 451.299 1506.67 453.675C1506.38 454.05 1506.08 454.396 1505.82 454.755C1506.22 455.601 1506.71 456.357 1506.97 457.192C1507.31 458.305 1506.39 458.745 1505.95 459.403C1505.98 459.513 1505.97 459.579 1506 459.616C1507.77 461.641 1507.73 464.214 1506.46 466.689C1506.13 467.315 1505.94 468.145 1505.87 468.898C1505.61 471.461 1506.51 472.672 1508.46 472.785C1513.98 473.145 1519.48 472.791 1525 472.561C1526.19 472.499 1527.4 472.075 1528.55 471.652C1529.47 471.33 1530.12 470.491 1530.47 469.311C1530.75 468.369 1531.6 468.048 1532.23 468.617C1532.75 469.092 1532.82 469.754 1532.62 470.481C1532.1 472.327 1531.05 473.522 1529.67 474.296C1527.92 475.285 1526.04 475.517 1524.15 475.594C1522.99 475.649 1521.82 475.674 1520.61 475.73C1520.69 476.008 1520.74 476.198 1520.82 476.374C1521.74 479.037 1522.2 481.835 1522.25 484.738C1522.27 486.116 1522.47 486.436 1523.5 486.848C1527.84 488.568 1532.17 490.288 1536.48 492.001C1536.69 492.085 1536.9 492.168 1537.17 492.273C1537.16 491.905 1537.16 491.61 1537.17 491.322C1537.19 488.764 1537.13 486.201 1537.22 483.671C1537.46 477.194 1538.54 471.002 1541.16 465.344C1542.16 463.2 1543.01 460.999 1543.31 458.502C1543.38 457.822 1543.3 457.374 1542.87 456.934C1541.82 455.836 1540.74 454.599 1540.61 452.885C1540.45 451.09 1539.73 450.214 1538.55 449.649C1538.29 449.522 1537.93 449.427 1537.69 449.55C1533.38 451.53 1529.04 448.756 1527.81 443.159C1527.71 442.704 1527.56 442.523 1527.17 442.465C1523.21 441.725 1520.45 438.969 1519.23 434.182C1518.02 429.425 1518.99 425.195 1521.78 421.634C1522.03 421.319 1522.25 420.843 1522.33 420.413C1522.87 417.815 1524.13 416.24 1526.2 415.643C1526.47 415.556 1526.76 415.181 1526.88 414.839C1528.36 411.225 1532 409.739 1534.82 411.69C1535.22 411.969 1535.49 411.978 1535.87 411.69C1539.25 409.222 1543.2 409.933 1545.91 413.478C1546.19 413.833 1546.37 413.881 1546.72 413.704C1549.19 412.604 1551.77 414.045 1552.77 417.082C1552.93 417.587 1553.16 417.848 1553.56 418.031C1558.01 420.19 1560.44 424.892 1560.25 430.903C1560.24 431.19 1560.41 431.599 1560.61 431.801C1562.75 433.871 1563.26 437.228 1561.89 440.103C1561.73 440.408 1561.68 440.852 1561.71 441.205C1562.08 444.897 1561.14 447.895 1558.81 450.193C1558.65 450.351 1558.46 450.495 1558.35 450.719C1557.11 453.377 1555.3 455.251 1552.99 456.288ZM1557.88 430.644C1558.19 426.517 1555.76 421.713 1553.06 421.13C1553.01 421.234 1552.98 421.345 1552.94 421.449C1552.57 422.231 1552.01 422.523 1551.44 422.248C1550.85 421.966 1550.62 421.337 1550.75 420.383C1550.78 420.176 1550.81 419.991 1550.82 419.777C1550.92 418.279 1550.28 416.996 1549.17 416.533C1548.07 416.07 1546.9 416.582 1546.28 417.804C1546.12 418.132 1546.05 418.495 1545.89 418.822C1545.57 419.5 1544.93 419.735 1544.39 419.422C1543.86 419.117 1543.61 418.429 1543.78 417.689C1543.87 417.311 1543.96 416.881 1544.15 416.568C1544.51 415.978 1544.35 415.62 1543.98 415.178C1541.55 412.282 1537.58 412.663 1535.53 416.002C1535.39 416.24 1535.27 416.486 1535.12 416.696C1534.67 417.347 1534.02 417.457 1533.53 416.966C1533.01 416.491 1532.9 415.69 1533.24 414.945C1533.35 414.722 1533.47 414.476 1533.58 414.252C1531.86 413.273 1529.68 414.241 1529.26 415.857C1530.01 416.887 1530.76 417.726 1531.34 418.738C1532 419.903 1531.85 420.916 1531.16 421.402C1530.47 421.911 1529.87 421.526 1529.31 420.204C1528.83 419.057 1527.87 418.407 1526.85 418.54C1525.82 418.695 1525 419.59 1524.74 420.855C1524.5 421.959 1524.75 422.889 1525.29 423.785C1525.73 424.549 1525.63 425.362 1525.11 425.867C1524.57 426.409 1523.89 426.284 1523.42 425.535C1523.24 425.244 1523.07 424.931 1522.89 424.617C1521.13 426.852 1520.66 430.842 1521.73 434.003C1522.78 437.083 1525.35 439.446 1527.6 439.39C1528 438.202 1528 438.202 1527.19 437.467C1525.82 436.214 1525.19 434.032 1525.6 431.996C1525.82 430.886 1526.6 430.367 1527.33 430.853C1527.9 431.224 1528.02 431.833 1527.92 432.624C1527.73 433.992 1528.09 434.817 1529 435.254C1529.3 434.857 1529.56 434.424 1529.87 434.034C1530.49 433.254 1531.18 433.188 1531.7 433.832C1532.22 434.477 1532.16 435.311 1531.54 436.113C1529.69 438.534 1529.45 441.907 1530.94 444.477C1532.46 447.083 1535.08 447.83 1537.47 446.289C1538.1 445.878 1538.65 445.925 1539.19 446.459C1540.72 447.944 1542.45 448.659 1544.38 448.787C1545.27 448.848 1545.79 449.42 1545.76 450.29C1545.73 451.256 1545.19 451.798 1544.28 451.752C1543.78 451.726 1543.31 451.662 1542.74 451.608C1543.13 453.251 1543.99 454.279 1544.94 455.143C1546.43 456.518 1547.74 458.038 1548.49 460.24C1548.72 460.943 1549.26 461.233 1549.87 461.058C1550.49 460.89 1550.84 460.344 1550.84 459.563C1550.84 458.634 1550.74 457.715 1550.7 456.795C1550.12 456.785 1549.64 456.788 1549.16 456.769C1547.98 456.691 1547.42 456.151 1547.47 455.169C1547.52 454.114 1548.08 453.704 1549.32 453.803C1551.06 453.957 1552.68 453.428 1554.18 452.091C1554 452.021 1553.92 451.964 1553.82 451.951C1551.58 451.646 1549.77 450.366 1548.43 448.051C1548.31 447.832 1547.97 447.722 1547.75 447.682C1545.88 447.479 1544.4 445.912 1544 443.702C1543.81 442.622 1544.1 441.835 1544.78 441.592C1545.46 441.349 1546.03 441.845 1546.29 442.901C1546.6 444.147 1547.38 444.823 1548.29 444.648C1549.19 444.467 1549.73 443.556 1549.73 442.237C1549.72 441.109 1550.11 440.46 1550.85 440.436C1551.56 440.399 1552.03 441.052 1552.09 442.149C1552.17 443.916 1551.62 445.358 1550.58 446.508C1551.64 448.667 1554.22 449.569 1556.32 448.544C1558.32 447.58 1559.74 444.844 1559.43 442.499C1559.12 442.572 1558.82 442.719 1558.5 442.741C1557.95 442.789 1557.41 442.528 1557.32 441.83C1557.24 441.338 1557.36 440.701 1557.57 440.247C1557.73 439.942 1558.16 439.844 1558.48 439.726C1559.55 439.32 1560.28 438.243 1560.34 436.922C1560.38 434.814 1558.91 433.349 1557.08 433.845C1556.25 434.077 1555.67 433.699 1555.49 432.848C1555.32 431.997 1555.7 431.244 1556.48 430.991C1556.93 430.805 1557.39 430.743 1557.88 430.644ZM1542.3 494.263C1542.15 488.879 1542.25 483.592 1543.04 478.334C1543.83 473.025 1545.79 468.332 1547.74 463.927C1546.95 462.536 1546.27 461.364 1545.54 460.097C1545.03 462.85 1543.92 465.218 1542.9 467.599C1542.39 468.789 1541.92 470.045 1541.54 471.313C1540.09 476.062 1539.6 481.047 1539.52 486.098C1539.49 488.457 1539.54 490.822 1539.56 493.15C1540.52 493.557 1541.37 493.893 1542.3 494.263Z" fill="black" fill-opacity="0.1"/>
<path d="M226.936 339.233C227.738 339.07 228.256 339.514 228.665 340.392C229.514 342.211 230.437 343.989 231.325 345.778C231.853 346.841 231.748 347.586 230.979 348.333C229.767 349.499 229.408 351.263 230.028 352.95C230.068 353.058 230.133 353.163 230.239 353.375C230.804 352.928 231.368 352.535 231.88 352.061C233.983 350.12 236.296 350.051 238.719 350.94C241.639 352.011 244.224 353.938 246.61 356.284C250.082 359.67 253.127 363.619 255.527 368.288C256.611 370.391 257.495 372.635 257.855 375.137C258.391 378.841 257.32 381.933 254.835 383.897C252.281 385.915 249.703 387.882 246.958 389.46C243.617 391.368 240.151 392.749 236.419 392.668C231.896 392.603 228.088 390.319 224.838 386.34C222.942 384.025 221.415 381.331 220.066 378.478C218.08 374.285 216.455 369.892 215.72 365.075C215.314 362.4 215.096 359.665 214.778 356.973C214.584 355.298 214.223 353.668 213.516 352.19C213.094 351.339 213.087 350.561 213.584 349.785C215.29 348.437 216.986 347.097 218.691 345.749C219.522 345.563 220.105 345.973 220.493 346.919C220.629 347.247 220.804 347.545 220.959 347.857C221.176 348.295 221.394 348.733 221.611 349.171C221.725 349.045 221.717 348.947 221.731 348.867C222.069 346.266 222.915 343.979 224.29 342.021C224.763 341.334 225.321 340.736 225.845 340.096C226.206 339.811 226.576 339.518 226.936 339.233ZM226.986 384.381C227.074 384.503 227.124 384.603 227.187 384.675C229.769 387.719 232.809 389.304 236.304 389.346C239.654 389.398 242.765 388.176 245.778 386.509C248.493 385.008 251.023 383.078 253.509 381.061C254.877 379.963 255.464 378.385 255.343 376.338C255.253 374.79 254.821 373.373 254.279 372.007C253.241 369.397 251.842 367.125 250.283 364.996C247.476 361.172 244.342 357.867 240.678 355.434C239.466 354.633 238.204 353.976 236.849 353.706C236.037 353.547 235.229 353.506 234.481 353.993C233.223 354.795 232.296 356.016 231.775 357.699C231.331 359.129 231.165 360.653 231.262 362.161C231.425 364.731 231.656 367.3 231.896 369.862C232.098 372.018 232.294 374.162 232.143 376.318C231.881 380.164 230.178 383.513 226.986 384.381ZM229.004 357.886C227.544 358.552 226.123 359.135 224.751 359.871C223.917 360.321 223.09 360.87 222.38 361.571C221.145 362.773 220.714 364.558 220.549 366.466C220.243 370.033 220.9 373.379 222.202 376.547C222.747 377.892 223.384 379.148 224.35 380.109C226.258 382.013 227.996 380.866 228.861 378.946C229.437 377.673 229.611 376.247 229.551 374.814C229.457 372.52 229.29 370.215 229.077 367.928C228.779 364.594 228.279 361.263 229.004 357.886ZM222.611 357.418C221.295 354.766 220.022 352.202 218.749 349.638C217.892 350.316 217.073 350.963 216.225 351.633C216.842 353.287 217.202 355.023 217.384 356.812C217.576 358.646 217.751 360.475 217.942 362.309C218 362.89 218.099 363.473 218.183 364.051C218.881 360.975 220.319 358.759 222.611 357.418ZM227.028 343.271C223.951 346.503 223.416 352.341 225.149 356.161C226.047 355.729 226.946 355.298 227.854 354.859C227.815 354.698 227.8 354.641 227.779 354.57C226.719 351.751 226.951 349.13 228.478 346.739C228.537 346.64 228.579 346.451 228.551 346.368C228.055 345.314 227.537 344.296 227.028 343.271Z" fill="black" fill-opacity="0.1"/>
<path d="M1457.05 123.873C1457.44 123.061 1457.81 122.227 1458.22 121.428C1459.23 119.448 1460.5 117.887 1462.28 117.091C1463.47 116.556 1464.66 116.594 1465.84 117.025C1466.57 117.295 1467.28 117.7 1468.07 117.516C1468.46 117.421 1468.88 117.355 1469.26 117.183C1470.79 116.521 1472.35 116.249 1473.95 116.15C1475.11 116.083 1476.32 116.018 1477.43 115.608C1480.37 114.505 1482.95 112.575 1485.02 109.573C1486.12 107.961 1487.19 106.313 1488.52 104.963C1488.69 104.774 1488.75 104.599 1488.63 104.295C1487.68 101.887 1487.51 99.29 1487.68 96.6102C1487.77 95.2735 1487.99 93.9243 1488.18 92.6007C1488.28 91.8877 1488.69 91.5048 1489.19 91.6146C1489.68 91.718 1489.96 92.2591 1489.84 92.9817C1489.56 94.6698 1489.35 96.358 1489.35 98.0786C1489.34 100.078 1489.59 102.003 1490.37 103.758C1490.67 104.42 1490.57 105.079 1490.25 105.66C1490 106.111 1489.71 106.558 1489.37 106.887C1488.49 107.758 1487.77 108.821 1487.05 109.885C1485.95 111.504 1484.82 113.12 1483.41 114.294C1481.37 115.997 1479.26 117.499 1476.83 118.024C1475.91 118.221 1474.97 118.273 1474.05 118.316C1472.59 118.377 1471.16 118.681 1469.75 119.215C1469.02 119.491 1468.26 119.672 1467.53 119.664C1466.87 119.656 1466.21 119.425 1465.57 119.167C1463.4 118.277 1461.71 119.264 1460.28 121.404C1459.34 122.822 1458.73 124.468 1458.14 126.142C1457.99 126.568 1457.87 127.012 1457.71 127.453C1457.51 128.006 1457.14 128.261 1456.73 128.158C1456.33 128.061 1456.09 127.654 1456.08 127.03C1456.07 126.954 1456.08 126.899 1456.07 126.822C1456.4 125.87 1456.72 124.879 1457.05 123.873Z" fill="black" fill-opacity="0.1"/>
<path d="M1502.07 125.213C1500.81 129.112 1499.01 132.773 1496.46 135.776C1493.4 139.371 1489.78 141.426 1485.61 141.948C1481.39 142.482 1477.48 141.199 1473.72 138.885C1471.61 137.597 1469.78 135.876 1468.22 133.668C1467.32 132.382 1466.69 130.918 1466.26 129.313C1466.03 128.469 1465.85 127.613 1465.64 126.775C1465.29 125.363 1464.19 124.997 1463.33 126.015C1462.67 126.79 1462.25 127.761 1461.88 128.758C1461.73 129.18 1461.59 129.609 1461.39 130.012C1461.17 130.471 1460.71 130.604 1460.34 130.374C1459.97 130.145 1459.75 129.617 1459.88 129.111C1460.41 127.321 1461.05 125.59 1462.22 124.284C1463.37 123.002 1464.98 122.86 1466.15 123.898C1466.79 124.475 1467.09 125.32 1467.33 126.225C1467.67 127.537 1467.97 128.884 1468.41 130.141C1469 131.825 1470.05 133.098 1471.16 134.235C1474.5 137.619 1478.38 139.492 1482.61 139.821C1487.98 140.242 1492.58 137.938 1496.23 132.903C1498.61 129.622 1500.26 125.828 1501.17 121.543C1501.82 118.515 1502.03 115.457 1501.38 112.367C1500.79 109.526 1499.5 107.309 1497.53 105.74C1497.22 105.482 1496.88 105.272 1496.54 105.094C1495.63 104.619 1494.99 103.819 1494.61 102.672C1493.79 100.176 1493.32 97.6022 1493.48 94.8795C1493.51 94.3911 1493.6 93.8815 1493.72 93.4009C1493.87 92.7389 1494.33 92.4365 1494.8 92.6105C1495.24 92.7648 1495.5 93.3282 1495.38 93.9716C1494.88 96.8007 1495.47 99.4336 1496.32 101.997C1496.43 102.357 1496.76 102.714 1497.06 102.888C1498.81 103.914 1500.28 105.351 1501.41 107.319C1502.67 109.484 1503.3 111.935 1503.47 114.574C1503.71 118.217 1503.12 121.687 1502.07 125.213Z" fill="black" fill-opacity="0.1"/>
<path d="M1476.39 136.533C1473.64 135.022 1471.58 133.289 1470.01 130.705C1469.1 129.195 1468.59 127.478 1468.81 125.488C1469.11 122.654 1470.9 120.601 1473.15 120.441C1474.36 120.355 1475.48 120.752 1476.61 121.193C1478.53 121.935 1480.45 122.747 1482.42 123.306C1485.17 124.104 1487.97 124.116 1490.75 123.047C1492.01 122.56 1493.19 121.782 1494.29 120.833C1494.61 120.551 1494.97 120.309 1495.33 120.177C1496.31 119.823 1497.14 120.483 1497.36 121.744C1497.61 123.21 1497.48 124.68 1497.15 126.124C1496.3 129.893 1494.36 132.588 1491.8 134.485C1487.72 137.524 1483.37 138.58 1478.79 137.393C1477.83 137.134 1476.89 136.702 1476.39 136.533ZM1495.68 122.237C1495.47 122.391 1495.3 122.549 1495.12 122.661C1494.21 123.311 1493.33 124.057 1492.37 124.572C1489.36 126.177 1486.23 126.294 1483.1 125.708C1480.68 125.253 1478.37 124.258 1476.06 123.296C1475.03 122.867 1474 122.461 1472.87 122.684C1471.22 123.004 1470.21 124.809 1470.49 126.93C1470.62 127.899 1470.97 128.72 1471.44 129.458C1473.18 132.17 1475.44 133.912 1478.04 134.875C1482.49 136.501 1486.78 135.622 1490.85 132.67C1493.03 131.085 1494.71 128.859 1495.47 125.665C1495.73 124.56 1495.85 123.434 1495.68 122.237Z" fill="black" fill-opacity="0.1"/>
<path d="M451.33 249.515C451.73 248.663 452.123 247.787 452.549 246.949C453.61 244.869 454.949 243.23 456.811 242.395C458.07 241.833 459.312 241.873 460.556 242.326C461.325 242.609 462.063 243.034 462.898 242.841C463.309 242.741 463.74 242.672 464.147 242.491C465.752 241.796 467.388 241.511 469.071 241.407C470.29 241.336 471.552 241.269 472.722 240.838C475.81 239.68 478.517 237.654 480.685 234.503C481.846 232.809 482.973 231.079 484.36 229.662C484.546 229.464 484.607 229.28 484.485 228.961C483.483 226.433 483.303 223.707 483.485 220.893C483.582 219.49 483.804 218.073 484.003 216.684C484.112 215.935 484.547 215.533 485.069 215.649C485.578 215.757 485.875 216.325 485.748 217.084C485.454 218.856 485.236 220.628 485.233 222.435C485.226 224.533 485.485 226.555 486.303 228.397C486.62 229.093 486.514 229.784 486.177 230.395C485.917 230.868 485.611 231.337 485.256 231.682C484.336 232.597 483.576 233.713 482.817 234.83C481.669 236.529 480.478 238.226 478.999 239.458C476.854 241.247 474.643 242.823 472.087 243.375C471.127 243.581 470.141 243.636 469.173 243.681C467.639 243.745 466.143 244.064 464.658 244.625C463.897 244.915 463.093 245.105 462.325 245.096C461.631 245.088 460.94 244.845 460.272 244.575C457.992 243.64 456.214 244.677 454.721 246.923C453.734 248.412 453.091 250.14 452.469 251.898C452.308 252.344 452.185 252.81 452.018 253.273C451.813 253.854 451.422 254.121 450.989 254.013C450.568 253.911 450.315 253.484 450.303 252.83C450.299 252.749 450.303 252.692 450.299 252.611C450.642 251.612 450.983 250.571 451.33 249.515Z" fill="black" fill-opacity="0.1"/>
<path d="M498.591 250.922C497.264 255.016 495.382 258.859 492.7 262.011C489.488 265.785 485.687 267.943 481.311 268.491C476.883 269.051 472.771 267.705 468.827 265.275C466.612 263.923 464.686 262.117 463.053 259.799C462.113 258.448 461.451 256.911 460.993 255.226C460.755 254.34 460.568 253.441 460.344 252.562C459.975 251.08 458.826 250.695 457.916 251.763C457.23 252.577 456.787 253.596 456.397 254.643C456.236 255.087 456.088 255.537 455.887 255.96C455.651 256.442 455.17 256.582 454.783 256.341C454.396 256.099 454.158 255.545 454.301 255.014C454.855 253.135 455.529 251.318 456.756 249.946C457.959 248.601 459.656 248.451 460.883 249.542C461.555 250.147 461.871 251.034 462.119 251.984C462.475 253.362 462.788 254.776 463.257 256.095C463.874 257.863 464.975 259.2 466.138 260.393C469.651 263.947 473.716 265.913 478.157 266.258C483.794 266.7 488.629 264.282 492.461 258.995C494.959 255.551 496.685 251.568 497.648 247.069C498.333 243.89 498.546 240.68 497.869 237.435C497.247 234.453 495.896 232.126 493.825 230.478C493.494 230.208 493.147 229.987 492.788 229.8C491.833 229.301 491.16 228.461 490.762 227.257C489.896 224.637 489.399 221.935 489.575 219.076C489.603 218.564 489.701 218.028 489.82 217.524C489.986 216.829 490.463 216.511 490.962 216.694C491.422 216.856 491.695 217.448 491.566 218.123C491.043 221.093 491.66 223.857 492.549 226.549C492.674 226.927 493.017 227.301 493.33 227.484C495.169 228.561 496.71 230.07 497.898 232.136C499.22 234.408 499.883 236.982 500.063 239.752C500.316 243.577 499.696 247.22 498.591 250.922Z" fill="black" fill-opacity="0.1"/>
<path d="M471.626 262.806C468.74 261.22 466.578 259.4 464.935 256.687C463.978 255.102 463.439 253.3 463.672 251.211C463.984 248.236 465.867 246.08 468.228 245.912C469.494 245.822 470.669 246.238 471.858 246.701C473.879 247.48 475.891 248.333 477.959 248.919C480.85 249.758 483.785 249.77 486.701 248.647C488.029 248.137 489.262 247.32 490.418 246.324C490.756 246.027 491.141 245.774 491.518 245.635C492.544 245.263 493.418 245.956 493.647 247.279C493.911 248.819 493.766 250.362 493.419 251.879C492.529 255.835 490.5 258.665 487.812 260.656C483.525 263.846 478.956 264.955 474.149 263.709C473.138 263.437 472.156 262.984 471.626 262.806ZM491.879 247.798C491.66 247.96 491.485 248.125 491.296 248.243C490.333 248.925 489.413 249.708 488.407 250.249C485.246 251.934 481.965 252.057 478.67 251.442C476.128 250.964 473.712 249.92 471.285 248.909C470.197 248.459 469.115 248.033 467.938 248.267C466.2 248.603 465.141 250.498 465.436 252.725C465.57 253.742 465.935 254.604 466.435 255.378C468.26 258.226 470.629 260.055 473.358 261.065C478.028 262.773 482.537 261.85 486.809 258.751C489.104 257.087 490.865 254.749 491.663 251.396C491.938 250.237 492.055 249.054 491.879 247.798Z" fill="black" fill-opacity="0.1"/>
</svg>
